<svg xmlns="http://www.w3.org/2000/svg" width="27.988" height="24.448" viewBox="0 0 27.988 24.448">
  <g id="Bus_Grey" data-name="Bus Grey" transform="translate(0.25 0.278)">
    <path id="Path_139678" data-name="Path 139678" d="M1136.632,1811.026l5.884-3.521.164,4.225-6.048,3.472Z" transform="translate(-1115.316 -1793.967)" fill="#c3c3c3" fill-rule="evenodd"/>
    <path id="Path_95029" data-name="Path 95029" d="M57.3,121.787l.114-5.772a3.926,3.926,0,0,0-2.057-3.543L36.786,101.956a.467.467,0,0,0-.686.4v7.372a.793.793,0,0,0,.4.686l20.288,11.658A.358.358,0,0,0,57.3,121.787Z" transform="translate(-36.1 -98.327)" fill="none" stroke="#000" stroke-miterlimit="10" stroke-width="0.5"/>
    <path id="Path_95030" data-name="Path 95030" d="M52.789,112.315,46.5,115.973,25.3,103.8" transform="translate(-25.3 -99.142)" fill="none" stroke="#000" stroke-miterlimit="10" stroke-width="0.5"/>
    <path id="Path_95031" data-name="Path 95031" d="M52.789,119.344l-6.172,3.543-2.4-2.572L25.3,109.4" transform="translate(-25.3 -101.542)" fill="none" stroke="#000" stroke-miterlimit="10" stroke-width="0.5"/>
    <line id="Line_230" data-name="Line 230" y2="3.2" transform="translate(17.316 14.601)" fill="none" stroke="#000" stroke-miterlimit="10" stroke-width="0.5"/>
    <line id="Line_231" data-name="Line 231" y2="2.172" transform="translate(15.488 16.83)" fill="none" stroke="#000" stroke-miterlimit="10" stroke-width="0.5"/>
    <line id="Line_232" data-name="Line 232" y2="3.258" transform="translate(13.83 12.544)" fill="none" stroke="#000" stroke-miterlimit="10" stroke-width="0.5"/>
    <line id="Line_233" data-name="Line 233" y2="3.258" transform="translate(4.458 7.115)" fill="none" stroke="#000" stroke-miterlimit="10" stroke-width="0.5"/>
    <line id="Line_234" data-name="Line 234" y2="3.258" transform="translate(1.657 5.515)" fill="none" stroke="#000" stroke-miterlimit="10" stroke-width="0.5"/>
    <path id="Path_95032" data-name="Path 95032" d="M54.1,116.629l4,2.343v-6.8L54.1,110Z" transform="translate(-47.071 -101.799)" fill="#c3c3c3" stroke="#000" stroke-miterlimit="10" stroke-width="0.5"/>
    <line id="Line_235" data-name="Line 235" y2="6.744" transform="translate(8.972 9.115)" fill="none" stroke="#000" stroke-miterlimit="10" stroke-width="0.5"/>
    <line id="Line_236" data-name="Line 236" x1="6.401" y2="3.715" transform="translate(20.802 11.973)" fill="none" stroke="#000" stroke-miterlimit="10" stroke-width="0.5"/>
    <path id="Path_95033" data-name="Path 95033" d="M41.508,129.1c-.571.743-.114,2.172.8,3.029.857.743,1.772.743,2.172.114a2.4,2.4,0,0,0-.514-2.572C43.165,128.7,42.022,128.356,41.508,129.1Z" transform="translate(-26.306 -109.811)" fill="#fffdfe" stroke="#000" stroke-miterlimit="10" stroke-width="0.5"/>
    <path id="Path_95034" data-name="Path 95034" d="M27.216,129.081c-.343-.114-.743.171-.914.629-.171.343-.057.686.229.743a.815.815,0,0,0,.8-.457C27.559,129.6,27.559,129.2,27.216,129.081Z" transform="translate(-0.527 -109.965)" fill="#fffdfe" stroke="#000" stroke-miterlimit="10" stroke-width="0.5"/>
    <path id="Path_95035" data-name="Path 95035" d="M34.268,133.181c-.286-.114-.743.171-.914.571-.171.343-.057.629.171.686a.862.862,0,0,0,.8-.457A.475.475,0,0,0,34.268,133.181Z" transform="translate(-11.58 -111.721)" fill="#fffdfe" stroke="#000" stroke-miterlimit="10" stroke-width="0.5"/>
    <path id="Path_95036" data-name="Path 95036" d="M43.061,130.881a1.041,1.041,0,0,0,.343,1.257c.343.286.743.286.914.057a1.016,1.016,0,0,0-.229-1.086C43.747,130.71,43.29,130.6,43.061,130.881Z" transform="translate(-27.002 -110.679)" fill="#c3c3c3"/>
    <path id="Path_95037" data-name="Path 95037" d="M66.408,114.887c-.571.743-.114,2.172.8,3.029.857.743,1.772.743,2.172.114a2.4,2.4,0,0,0-.514-2.572C68.122,114.43,66.979,114.144,66.408,114.887Z" transform="translate(-65.436 -103.715)" fill="#fffdfe" stroke="#000" stroke-miterlimit="10" stroke-width="0.5"/>
    <path id="Path_95038" data-name="Path 95038" d="M67.961,116.681a1.041,1.041,0,0,0,.343,1.257c.343.286.743.286.914.057a1.016,1.016,0,0,0-.229-1.086C68.7,116.51,68.19,116.4,67.961,116.681Z" transform="translate(-66.133 -104.594)" fill="#c3c3c3"/>
    <path id="Path_95039" data-name="Path 95039" d="M25.3,99.279l5.429-3.372a1.857,1.857,0,0,1,1.886,0l18.916,11.087a2,2,0,0,1,1.029,1.714l.057,6.686a1.225,1.225,0,0,1-.629,1.086l-4.915,2.857a1.179,1.179,0,0,1-1.143.114L43.7,118.2" transform="translate(-25.129 -95.65)" fill="none" stroke="#000" stroke-miterlimit="10" stroke-width="0.5"/>
    <path id="Path_95040" data-name="Path 95040" d="M30.8,132.453l-.286-.343a.354.354,0,0,0-.457-.057l-1.6.914a.789.789,0,0,0-.171.229l-.286.914Z" transform="translate(-4.855 -111.222)" fill="none" stroke="#000" stroke-miterlimit="10" stroke-width="0.5"/>
  </g>
</svg>
