<svg xmlns="http://www.w3.org/2000/svg" width="93.264" height="35.236" viewBox="0 0 93.264 35.236">
  <g id="Colored_Logo" data-name="Colored Logo" transform="translate(-177.309 -148)">
    <path id="Path_158" data-name="Path 158" d="M264.086,401.911a1.993,1.993,0,0,1,1.83-2.152c1.3,0,1.993,1.284,1.993,3.057,0,1.791-.706,3.111-2.047,3.111a1.886,1.886,0,0,1-1.775-2.135Zm-.417-4.07h-2.3c.036.9.073,1.972.073,3.256V411.77h2.645v-4.956h.036a2.736,2.736,0,0,0,2.356,1.158c2.03,0,4.095-1.61,4.095-5.264,0-3.057-1.612-5.083-3.787-5.083a3.354,3.354,0,0,0-2.954,1.574H263.8Zm-7.266,9.931h2.645v-9.949H256.4Zm2.737-12.662a1.423,1.423,0,1,0-1.432,1.411A1.336,1.336,0,0,0,259.14,395.11Zm-7.339,4.45-.109-1.736h-2.265c.037.886.073,1.881.073,3.111v6.837h2.645v-5.137c0-1.7.906-2.5,2.1-2.5a3.792,3.792,0,0,1,.688.054v-2.514a2.811,2.811,0,0,0-.6-.054,2.759,2.759,0,0,0-2.464,1.953H251.8Zm-13.137-5.517v2.279h3.389v11.45H244.7v-11.45H248.1v-2.279Zm-4.313,8.99c-.145.615-.308,1.321-.416,1.863h-.054c-.127-.561-.308-1.248-.471-1.863l-1.468-5.191h-2.9l3.352,9.135a1.43,1.43,0,0,1,.109.452,3.579,3.579,0,0,1-1.323,1.845,4.693,4.693,0,0,1-1.4.723l.67,2.225a5.189,5.189,0,0,0,2.573-1.393c1.123-1.121,1.975-2.876,3.08-6.1l2.247-6.91H235.6Zm-10.473-8.99-1.558,5.155c-.471,1.646-.87,3.31-1.2,4.848h-.054c-.308-1.574-.707-3.184-1.142-4.848l-1.486-5.155h-3.28l-.924,13.729h2.41l.272-5.282c.091-1.7.181-3.726.217-5.463h.054c.326,1.682.761,3.545,1.2,5.083l1.522,5.463h2.011l1.685-5.553c.471-1.538.96-3.364,1.359-4.992h.054c-.018,1.393.072,3.6.145,5.408l.254,5.336h2.519l-.779-13.729Zm-17.268,7.724c.072-.977.616-2.3,1.885-2.3,1.3,0,1.721,1.266,1.7,2.3Zm5.943,1.827a6.091,6.091,0,0,0,.072-1.049c0-3.22-1.576-4.92-3.986-4.92-2.917,0-4.566,2.46-4.566,5.318,0,3.093,1.758,5.029,4.838,5.029a8.424,8.424,0,0,0,3.225-.579l-.381-1.827a7.219,7.219,0,0,1-2.428.416,2.41,2.41,0,0,1-2.718-2.37h5.943ZM196.081,407.3a5.8,5.8,0,0,0,2.809.669c2.482,0,3.914-1.248,3.914-3.147,0-1.375-.779-2.333-2.464-3.039-1.142-.488-1.522-.76-1.522-1.32,0-.543.435-.941,1.232-.941a4.152,4.152,0,0,1,1.884.525l.507-1.863a5.389,5.389,0,0,0-2.464-.561c-2.211,0-3.642,1.357-3.642,3.147,0,1.085.689,2.134,2.537,2.894,1.087.47,1.431.778,1.431,1.393s-.453.995-1.377.995a5.15,5.15,0,0,1-2.319-.669Zm-4.331-2.93a1.659,1.659,0,0,1-1.667,1.718,1.21,1.21,0,0,1-1.25-1.357c0-1.447,1.486-1.791,2.917-1.791v1.429Zm-4.313-4.178a4.842,4.842,0,0,1,2.446-.687c1.45,0,1.794.742,1.794,1.737-3.171,0-5.436,1.194-5.436,3.744a2.89,2.89,0,0,0,2.99,2.985,3.207,3.207,0,0,0,2.646-1.23h.054l.163,1.031h2.374a14.837,14.837,0,0,1-.145-2.352v-3.636c0-2.171-.833-4.142-3.932-4.142a7.241,7.241,0,0,0-3.461.832Zm-7.484,5.372v-3.817h4.494V399.6h-4.494v-3.328h4.766v-2.207h-7.411V407.79h7.683v-2.207h-5.037Z" transform="translate(0 -228.986)" fill="#005999"/>
    <path id="Path_159" data-name="Path 159" d="M428.762,291.812c7.284-14.688,27.18-3.455,38.215-13.259C455.978,290.021,434.216,280.344,428.762,291.812Z" transform="translate(-234.349 -121.673)" fill="#00699e" fill-rule="evenodd"/>
    <path id="Path_160" data-name="Path 160" d="M796.86,148.035l25.821,2.135c1.25.072,1.051.326.435.9l-12.594,12.318c-.707.778-.87.561-1.7-.362l-4.929-5.571c-.652-.687-.761-.832.362-1.23l12.249-3.943-13.79,2.46c-1.033.217-.906.362-1.631-.669l-4.584-5.246C795.918,148.2,795.972,147.89,796.86,148.035Z" transform="translate(-576.716)" fill="#00a3d6" fill-rule="evenodd"/>
    <path id="Path_161" data-name="Path 161" d="M864,275.074l1.341,1.429c.652.705.471.724-.272,1.176l-4.258,1.99c-.507.307-.833.054-.471-.525l2.7-4.323C863.3,274.279,863.585,274.568,864,275.074Z" transform="translate(-636.427 -117.923)" fill="#00699e" fill-rule="evenodd"/>
  </g>
</svg>
