<svg width="1967" height="851" viewBox="0 0 1967 851" fill="none" xmlns="http://www.w3.org/2000/svg">
<path d="M389.785 760.643C395.556 760.643 400.206 759.841 403.732 758.238C409.321 755.719 412.802 751.184 414.176 744.634C415.596 738.038 413.878 733.595 409.023 731.305C406.229 730.023 401.854 729.381 395.9 729.381H371.509L364.913 760.643H389.785ZM384.495 807.226C392.877 807.226 399.358 804.798 403.939 799.943C406.824 796.874 408.748 793.164 409.71 788.813C411.267 781.484 409.046 776.491 403.045 773.835C399.885 772.415 395.442 771.705 389.716 771.705H362.577L355.019 807.226H384.495ZM360.585 717.976H403.939C415.756 717.976 423.405 721.503 426.887 728.557C428.948 732.725 429.383 737.535 428.192 742.985C426.864 749.352 423.955 754.574 419.466 758.65C417.13 760.803 414.016 762.773 410.122 764.559C414.84 766.529 418.23 768.75 420.291 771.224C423.909 775.621 424.894 781.69 423.245 789.431C421.871 795.935 418.573 801.821 413.351 807.089C405.61 814.967 395.098 818.906 381.815 818.906H339.148L360.585 717.976ZM453.201 717.633H465.569L457.53 755.284C461.286 751.574 464.492 748.963 467.149 747.451C471.683 744.84 476.928 743.535 482.883 743.535C493.555 743.535 499.991 747.268 502.189 754.734C503.38 758.811 503.22 764.468 501.708 771.705L491.677 818.906H478.966L488.791 772.529C489.937 767.124 490.097 763.162 489.272 760.643C487.852 756.612 484.051 754.597 477.867 754.597C472.737 754.597 467.721 756.36 462.82 759.887C457.919 763.414 454.415 770.079 452.308 779.881L444.063 818.906H431.696L453.201 717.633ZM534.344 810.868C538.695 810.868 543.138 809.86 547.673 807.844C555.231 804.501 559.834 799.027 561.483 791.424L563.544 781.461C561.85 782.423 559.743 783.225 557.223 783.866C554.704 784.507 552.276 784.965 549.94 785.24L542.245 786.202C537.619 786.797 534.046 787.736 531.527 789.019C527.267 791.172 524.633 794.607 523.626 799.325C522.847 802.898 523.534 805.715 525.687 807.776C527.886 809.837 530.771 810.868 534.344 810.868ZM558.872 774.316C561.804 773.949 563.979 772.758 565.399 770.743C566.178 769.644 566.774 768.063 567.186 766.002C568.102 761.788 567.254 758.742 564.644 756.864C562.033 754.94 557.933 753.978 552.345 753.978C545.887 753.978 540.94 755.719 537.504 759.2C535.581 761.124 534 763.987 532.764 767.788H521.221C523.374 758.719 527.656 752.421 534.069 748.894C540.482 745.321 547.421 743.535 554.887 743.535C563.544 743.535 570.209 745.184 574.881 748.482C579.553 751.78 581.156 756.91 579.69 763.872L570.69 806.264C570.415 807.547 570.438 808.577 570.759 809.356C571.125 810.135 572.156 810.524 573.85 810.524C574.4 810.524 575.018 810.501 575.705 810.455C576.438 810.364 577.217 810.249 578.041 810.112L576.049 819.25C574.034 819.799 572.499 820.143 571.446 820.28C570.438 820.418 569.064 820.487 567.323 820.487C563.063 820.487 560.292 818.975 559.01 815.952C558.323 814.349 558.094 812.081 558.323 809.15C555.07 812.448 550.834 815.311 545.612 817.738C540.39 820.166 534.939 821.38 529.26 821.38C522.435 821.38 517.282 819.318 513.801 815.196C510.365 811.028 509.312 805.829 510.64 799.6C512.106 792.775 515.358 787.484 520.396 783.728C525.481 779.972 531.573 777.659 538.672 776.789L558.872 774.316ZM604.287 745.321H616.036L613.357 758.032C614.822 755.559 617.8 752.558 622.289 749.032C626.823 745.459 631.541 743.672 636.442 743.672C636.671 743.672 637.06 743.695 637.61 743.741C638.16 743.787 639.076 743.879 640.358 744.016L637.61 757.07C636.877 756.933 636.213 756.841 635.618 756.795C635.022 756.75 634.358 756.727 633.625 756.727C627.396 756.727 622.174 758.742 617.96 762.773C613.792 766.758 611.135 771.361 609.99 776.583L601.058 818.906H588.691L604.287 745.321ZM659.528 810.868C663.879 810.868 668.322 809.86 672.857 807.844C680.414 804.501 685.018 799.027 686.667 791.424L688.728 781.461C687.033 782.423 684.926 783.225 682.407 783.866C679.888 784.507 677.46 784.965 675.124 785.24L667.429 786.202C662.803 786.797 659.23 787.736 656.711 789.019C652.451 791.172 649.817 794.607 648.809 799.325C648.031 802.898 648.718 805.715 650.871 807.776C653.069 809.837 655.955 810.868 659.528 810.868ZM684.056 774.316C686.987 773.949 689.163 772.758 690.583 770.743C691.362 769.644 691.957 768.063 692.369 766.002C693.285 761.788 692.438 758.742 689.827 756.864C687.216 754.94 683.117 753.978 677.529 753.978C671.07 753.978 666.123 755.719 662.688 759.2C660.764 761.124 659.184 763.987 657.947 767.788H646.405C648.557 758.719 652.84 752.421 659.253 748.894C665.665 745.321 672.605 743.535 680.071 743.535C688.728 743.535 695.392 745.184 700.065 748.482C704.737 751.78 706.34 756.91 704.874 763.872L695.873 806.264C695.599 807.547 695.622 808.577 695.942 809.356C696.309 810.135 697.339 810.524 699.034 810.524C699.584 810.524 700.202 810.501 700.889 810.455C701.622 810.364 702.401 810.249 703.225 810.112L701.233 819.25C699.217 819.799 697.683 820.143 696.629 820.28C695.622 820.418 694.247 820.487 692.507 820.487C688.247 820.487 685.476 818.975 684.193 815.952C683.506 814.349 683.277 812.081 683.506 809.15C680.254 812.448 676.017 815.311 670.795 817.738C665.574 820.166 660.123 821.38 654.443 821.38C647.618 821.38 642.465 819.318 638.984 815.196C635.549 811.028 634.495 805.829 635.824 799.6C637.289 792.775 640.542 787.484 645.58 783.728C650.664 779.972 656.756 777.659 663.856 776.789L684.056 774.316ZM735.998 724.778H748.503L744.106 745.321H755.854L753.725 755.421H741.976L731.738 803.447C731.189 806.012 731.693 807.73 733.25 808.6C734.12 809.104 735.678 809.356 737.922 809.356C738.517 809.356 739.159 809.356 739.846 809.356C740.533 809.31 741.357 809.242 742.319 809.15L740.258 818.906C738.746 819.318 737.189 819.616 735.586 819.799C734.029 819.983 732.357 820.074 730.57 820.074C724.799 820.074 721.18 818.609 719.715 815.677C718.295 812.7 718.089 808.852 719.096 804.134L729.471 755.421H719.509L721.638 745.321H731.601L735.998 724.778ZM813.018 717.976H824.905L812.4 776.583L850.807 745.321H866.61L832.6 772.873L852.593 818.906H836.791L821.675 781.805L809.308 791.286L803.468 818.906H791.582L813.018 717.976ZM886.535 810.868C890.886 810.868 895.329 809.86 899.864 807.844C907.421 804.501 912.025 799.027 913.674 791.424L915.735 781.461C914.04 782.423 911.933 783.225 909.414 783.866C906.895 784.507 904.467 784.965 902.131 785.24L894.436 786.202C889.81 786.797 886.237 787.736 883.718 789.019C879.458 791.172 876.824 794.607 875.816 799.325C875.038 802.898 875.725 805.715 877.878 807.776C880.076 809.837 882.962 810.868 886.535 810.868ZM911.063 774.316C913.994 773.949 916.17 772.758 917.59 770.743C918.369 769.644 918.964 768.063 919.376 766.002C920.292 761.788 919.445 758.742 916.834 756.864C914.223 754.94 910.124 753.978 904.536 753.978C898.077 753.978 893.13 755.719 889.695 759.2C887.771 761.124 886.191 763.987 884.954 767.788H873.412C875.564 758.719 879.847 752.421 886.26 748.894C892.672 745.321 899.612 743.535 907.078 743.535C915.735 743.535 922.4 745.184 927.072 748.482C931.744 751.78 933.347 756.91 931.881 763.872L922.88 806.264C922.606 807.547 922.629 808.577 922.949 809.356C923.316 810.135 924.346 810.524 926.041 810.524C926.591 810.524 927.209 810.501 927.896 810.455C928.629 810.364 929.408 810.249 930.232 810.112L928.24 819.25C926.224 819.799 924.69 820.143 923.636 820.28C922.629 820.418 921.254 820.487 919.514 820.487C915.254 820.487 912.483 818.975 911.2 815.952C910.513 814.349 910.284 812.081 910.513 809.15C907.261 812.448 903.024 815.311 897.802 817.738C892.581 820.166 887.13 821.38 881.45 821.38C874.625 821.38 869.472 819.318 865.991 815.196C862.556 811.028 861.502 805.829 862.831 799.6C864.297 792.775 867.549 787.484 872.587 783.728C877.671 779.972 883.763 777.659 890.863 776.789L911.063 774.316ZM1073.76 717.976L1071.22 730H1037.21L1018.31 818.906H1004.44L1023.33 730H989.32L991.862 717.976H1073.76ZM1073.97 745.321H1085.72L1083.04 758.032C1084.5 755.559 1087.48 752.558 1091.97 749.032C1096.5 745.459 1101.22 743.672 1106.12 743.672C1106.35 743.672 1106.74 743.695 1107.29 743.741C1107.84 743.787 1108.76 743.879 1110.04 744.016L1107.29 757.07C1106.56 756.933 1105.89 756.841 1105.3 756.795C1104.7 756.75 1104.04 756.727 1103.3 756.727C1097.07 756.727 1091.85 758.742 1087.64 762.773C1083.47 766.758 1080.81 771.361 1079.67 776.583L1070.74 818.906H1058.37L1073.97 745.321ZM1129.21 810.868C1133.56 810.868 1138 809.86 1142.54 807.844C1150.09 804.501 1154.7 799.027 1156.35 791.424L1158.41 781.461C1156.71 782.423 1154.61 783.225 1152.09 783.866C1149.57 784.507 1147.14 784.965 1144.8 785.24L1137.11 786.202C1132.48 786.797 1128.91 787.736 1126.39 789.019C1122.13 791.172 1119.5 794.607 1118.49 799.325C1117.71 802.898 1118.4 805.715 1120.55 807.776C1122.75 809.837 1125.63 810.868 1129.21 810.868ZM1153.74 774.316C1156.67 773.949 1158.84 772.758 1160.26 770.743C1161.04 769.644 1161.64 768.063 1162.05 766.002C1162.96 761.788 1162.12 758.742 1159.51 756.864C1156.9 754.94 1152.8 753.978 1147.21 753.978C1140.75 753.978 1135.8 755.719 1132.37 759.2C1130.44 761.124 1128.86 763.987 1127.63 767.788H1116.08C1118.24 758.719 1122.52 752.421 1128.93 748.894C1135.34 745.321 1142.28 743.535 1149.75 743.535C1158.41 743.535 1165.07 745.184 1169.74 748.482C1174.42 751.78 1176.02 756.91 1174.55 763.872L1165.55 806.264C1165.28 807.547 1165.3 808.577 1165.62 809.356C1165.99 810.135 1167.02 810.524 1168.71 810.524C1169.26 810.524 1169.88 810.501 1170.57 810.455C1171.3 810.364 1172.08 810.249 1172.9 810.112L1170.91 819.25C1168.9 819.799 1167.36 820.143 1166.31 820.28C1165.3 820.418 1163.93 820.487 1162.19 820.487C1157.93 820.487 1155.15 818.975 1153.87 815.952C1153.19 814.349 1152.96 812.081 1153.19 809.15C1149.93 812.448 1145.7 815.311 1140.47 817.738C1135.25 820.166 1129.8 821.38 1124.12 821.38C1117.3 821.38 1112.14 819.318 1108.66 815.196C1105.23 811.028 1104.17 805.829 1105.5 799.6C1106.97 792.775 1110.22 787.484 1115.26 783.728C1120.34 779.972 1126.44 777.659 1133.54 776.789L1153.74 774.316ZM1204.85 745.321L1211.79 805.234L1245.05 745.321H1258.58L1215.23 818.906H1202.04L1190.49 745.321H1204.85ZM1323.72 756.864C1325.41 760.574 1326.14 764.903 1325.91 769.85C1325.96 773.239 1325.18 778.644 1323.58 786.064H1269.64C1268.27 793.531 1268.75 799.531 1271.09 804.066C1273.47 808.554 1278.12 810.799 1285.03 810.799C1291.49 810.799 1297.08 808.669 1301.8 804.409C1304.55 801.936 1306.72 799.073 1308.33 795.821H1320.49C1319.57 798.523 1317.85 801.546 1315.33 804.89C1312.86 808.188 1310.27 810.89 1307.57 812.997C1303.03 816.662 1297.86 819.135 1292.04 820.418C1288.88 821.151 1285.42 821.517 1281.67 821.517C1272.51 821.517 1265.45 818.196 1260.51 811.555C1255.56 804.867 1254.37 795.523 1256.93 783.522C1259.45 771.705 1264.7 762.109 1272.67 754.734C1280.64 747.36 1289.8 743.672 1300.15 743.672C1305.37 743.672 1310.18 744.909 1314.58 747.383C1318.97 749.81 1322.02 752.971 1323.72 756.864ZM1312.93 776.239C1313.57 770.88 1313.32 766.598 1312.17 763.391C1310.07 757.437 1305.05 754.459 1297.13 754.459C1291.45 754.459 1286.25 756.521 1281.53 760.643C1276.81 764.72 1273.65 769.918 1272.05 776.239H1312.93ZM1353.67 717.976H1366.04L1344.6 818.906H1332.24L1353.67 717.976ZM1456.87 777.545L1451.03 732.954L1425.26 777.545H1456.87ZM1447.11 717.976H1462.57L1477.76 818.906H1462.78L1458.93 788.675H1419.01L1401.7 818.906H1387.68L1447.11 717.976ZM1547.63 781.667C1548.87 775.804 1549.07 770.766 1548.25 766.552C1546.78 758.444 1541.79 754.391 1533.27 754.391C1524.71 754.391 1517.93 758.673 1512.93 767.239C1510.28 771.819 1508.19 777.636 1506.68 784.69C1505.49 790.37 1505.33 795.202 1506.2 799.187C1507.76 806.791 1512.8 810.593 1521.32 810.593C1527.09 810.593 1532.4 808.188 1537.26 803.379C1542.11 798.523 1545.57 791.286 1547.63 781.667ZM1503.11 745.665H1515.13L1513.07 755.421C1516.23 752.078 1519.48 749.49 1522.83 747.657C1527.59 744.909 1532.79 743.535 1538.42 743.535C1546.76 743.535 1553.15 746.741 1557.59 753.154C1562.04 759.521 1563 768.636 1560.48 780.499C1557.09 796.531 1550.47 807.982 1540.62 814.853C1534.39 819.204 1527.75 821.38 1520.7 821.38C1515.16 821.38 1510.76 820.166 1507.51 817.738C1505.58 816.364 1503.64 814.005 1501.67 810.661L1493.7 848.244H1481.33L1503.11 745.665ZM1625.96 781.667C1627.19 775.804 1627.4 770.766 1626.57 766.552C1625.11 758.444 1620.12 754.391 1611.6 754.391C1603.03 754.391 1596.25 758.673 1591.26 767.239C1588.6 771.819 1586.52 777.636 1585.01 784.69C1583.82 790.37 1583.66 795.202 1584.53 799.187C1586.08 806.791 1591.12 810.593 1599.64 810.593C1605.41 810.593 1610.73 808.188 1615.58 803.379C1620.44 798.523 1623.9 791.286 1625.96 781.667ZM1581.43 745.665H1593.46L1591.4 755.421C1594.56 752.078 1597.81 749.49 1601.15 747.657C1605.92 744.909 1611.12 743.535 1616.75 743.535C1625.09 743.535 1631.48 746.741 1635.92 753.154C1640.36 759.521 1641.32 768.636 1638.8 780.499C1635.41 796.531 1628.8 807.982 1618.95 814.853C1612.72 819.204 1606.08 821.38 1599.02 821.38C1593.48 821.38 1589.08 820.166 1585.83 817.738C1583.91 816.364 1581.96 814.005 1579.99 810.661L1572.02 848.244H1559.65L1581.43 745.665Z" fill="#515151"/>
<path d="M47.4202 513.214V444.826H128.067V406.115H47.4202V346.437H132.906V306.759H0V553.215H138.067V513.537L47.4202 513.214ZM181.939 416.761C193.552 409.664 209.681 404.502 225.81 404.502C251.94 404.502 258.069 417.728 258.069 435.793C200.971 435.793 160.325 457.084 160.325 502.891C160.325 531.924 180.971 556.441 213.875 556.441C233.875 556.441 251.295 548.376 261.295 534.505H262.263L265.166 552.892H307.747C305.812 541.924 305.167 526.117 305.167 510.633V445.471C305.167 406.438 290.328 370.953 234.52 370.953C206.455 370.953 184.519 379.018 172.261 385.792L181.939 416.761ZM259.359 491.923C259.359 514.504 240.972 522.892 229.359 522.892C217.423 522.892 206.778 515.472 206.778 498.375C206.778 472.245 233.552 466.116 259.037 466.116V491.923H259.359ZM337.103 544.505C349.038 551.602 368.071 556.441 387.426 556.441C431.943 556.441 457.75 534.182 457.75 499.988C457.75 475.149 443.879 458.052 413.556 445.471C392.91 436.761 386.136 431.922 386.136 421.599C386.136 411.922 393.878 404.825 408.394 404.825C421.62 404.825 434.524 409.986 442.266 414.18L451.298 380.631C440.975 375.147 425.169 370.631 407.104 370.631C367.426 370.631 341.619 395.147 341.619 427.083C341.619 446.439 353.877 465.471 387.104 479.02C406.781 487.407 412.91 492.891 412.91 503.859C412.91 514.827 404.846 521.601 388.071 521.601C373.555 521.601 355.49 515.149 346.458 509.665L337.103 544.505ZM632.914 477.729C633.882 472.568 634.205 465.794 634.205 459.019C634.205 401.276 605.817 370.631 562.59 370.631C510.332 370.631 480.654 414.825 480.654 466.116C480.654 521.601 512.267 556.441 567.429 556.441C589.688 556.441 610.333 552.569 625.495 546.118L618.721 513.214C606.462 517.408 592.591 520.633 575.171 520.633C549.364 520.633 527.751 508.375 526.461 478.052H633.237V477.729H632.914ZM526.138 445.148C527.429 427.729 537.106 403.857 560.01 403.857C583.559 403.857 590.978 426.438 590.656 445.148H526.138ZM836.144 306.436L808.079 399.018C799.691 428.696 792.595 458.374 786.465 486.117H785.498C780.014 457.729 772.917 429.019 764.852 399.018L738.077 306.436H679.044L662.592 552.892H706.464L711.303 458.052C712.916 427.406 714.529 391.276 715.174 359.985H716.142C721.948 390.309 729.69 423.535 737.755 451.277L765.175 549.344H801.304L831.627 449.664C840.015 421.922 848.725 389.341 856.144 359.985H857.112C856.789 384.825 858.402 424.503 859.692 457.084L864.209 552.892H909.371L895.5 306.436H836.144ZM1024.21 467.729C1021.63 478.697 1018.73 491.601 1016.79 501.278H1015.82C1013.57 491.278 1010.34 479.02 1007.44 467.729L980.985 374.502H929.049L989.372 538.376C990.663 541.924 991.308 544.505 991.308 546.44C991.308 549.989 983.243 568.054 967.436 579.667C959.049 585.473 950.339 590.635 942.275 592.57L954.21 632.571C964.856 630.635 983.243 624.184 1000.34 607.732C1020.34 587.731 1035.82 556.118 1055.5 498.375L1095.83 374.179H1046.47L1024.21 467.729ZM1101.63 306.436V347.405H1162.6V552.892H1210.02V347.405H1271.31V306.436H1101.63ZM1337.44 405.47L1335.51 374.179H1294.86C1295.51 389.986 1296.15 408.051 1296.15 429.987V552.892H1343.57V460.632C1343.57 429.987 1359.7 415.793 1381.31 415.793C1386.15 415.793 1390.02 416.115 1393.57 416.761V371.599C1390.35 370.953 1387.44 370.631 1382.93 370.631C1366.48 370.631 1346.8 382.566 1338.73 405.793H1337.44V405.47ZM1469.06 325.469C1469.06 310.952 1458.74 299.984 1443.25 299.984C1428.73 299.984 1417.77 310.63 1417.77 325.469C1417.77 339.662 1428.09 350.953 1443.25 350.953C1458.41 351.276 1469.06 340.953 1469.06 325.469ZM1420.02 552.892H1467.45V374.179H1420.02V552.892ZM1550.35 374.502H1509.06C1509.7 390.631 1510.35 409.986 1510.35 432.89V624.506H1558.09V535.472H1558.74C1566.48 547.408 1581.64 556.118 1601 556.118C1637.45 556.118 1674.55 527.085 1674.55 461.6C1674.55 406.76 1645.51 370.308 1606.48 370.308C1583.25 370.308 1565.19 380.308 1553.58 398.696H1552.93L1550.35 374.502ZM1558.09 447.729C1558.09 426.438 1572.29 409.019 1591 409.019C1614.54 409.019 1626.8 431.922 1626.8 463.858C1626.8 496.117 1614.22 519.666 1590.03 519.666C1574.22 519.666 1558.09 507.085 1558.09 481.278V447.729Z" fill="#005B9B"/>
<path fill-rule="evenodd" clip-rule="evenodd" d="M307.086 397.725C437.733 133.849 795.159 335.788 993.227 159.656C795.804 365.466 405.152 191.592 307.086 397.725Z" fill="#005B9B"/>
<path fill-rule="evenodd" clip-rule="evenodd" d="M901.323 164.182L924.872 189.344C936.485 201.925 933.259 202.248 920.033 209.99L844.871 245.152C835.838 250.636 830.032 246.119 836.484 235.797L884.226 159.666C888.743 150.311 893.904 155.473 901.323 164.182Z" fill="#005B9B"/>
<path d="M1643.68 627.251C1646.72 627.251 1648.55 626.035 1649.16 624.211C1650.37 622.388 1650.37 619.956 1650.37 617.525C1650.37 615.093 1649.16 613.878 1647.94 612.662C1646.12 611.446 1644.29 610.23 1642.47 610.23C1640.04 610.23 1638.21 611.446 1637.61 613.27C1636.39 615.701 1636.39 617.525 1636.39 619.348C1636.39 621.78 1637 622.996 1638.82 624.819C1639.43 626.643 1641.25 627.251 1643.68 627.251ZM1708.1 627.858C1713.57 627.858 1718.44 626.643 1723.3 624.819C1728.16 622.996 1733.02 620.564 1737.28 617.525C1741.53 614.486 1745.18 610.838 1748.83 607.191C1752.48 602.936 1755.52 599.289 1757.34 594.426C1757.95 593.818 1757.95 593.21 1758.56 591.995C1759.16 590.779 1759.16 590.171 1759.16 589.563C1759.16 587.74 1757.95 586.524 1756.12 586.524C1754.91 586.524 1753.69 587.132 1753.08 588.347C1751.87 589.563 1751.26 590.779 1750.65 591.387C1748.83 594.426 1746.4 597.465 1743.97 600.505C1741.54 603.544 1738.5 605.975 1735.46 608.407C1732.42 610.838 1728.77 612.662 1725.73 614.486C1722.08 616.309 1718.44 616.917 1714.18 616.917C1710.53 616.917 1707.49 615.701 1705.06 613.27C1703.24 611.446 1702.02 609.015 1701.42 606.583C1700.2 604.152 1700.2 601.112 1700.2 598.073C1700.2 595.034 1700.81 591.387 1701.42 588.347C1702.02 584.7 1703.24 581.661 1704.46 578.622C1705.67 575.582 1706.89 572.543 1708.71 570.112C1710.53 567.68 1711.75 565.249 1712.97 564.033C1714.18 562.817 1716 561.602 1717.22 560.994C1719.04 559.778 1720.26 559.778 1722.08 559.778C1724.51 559.778 1725.73 560.386 1725.73 562.209C1726.34 564.033 1726.34 565.249 1726.34 567.072C1726.34 570.112 1725.73 572.543 1724.51 574.367C1723.3 576.19 1722.69 578.014 1722.69 579.23C1722.69 580.445 1723.3 581.053 1724.51 581.053C1726.34 581.053 1727.55 580.445 1729.38 579.23C1731.2 577.406 1732.42 575.582 1733.02 572.543C1733.63 569.504 1734.24 567.68 1734.24 565.249C1734.24 560.386 1733.02 556.739 1729.99 554.915C1727.55 552.484 1723.91 551.876 1719.65 551.876C1716 551.876 1712.36 553.091 1708.71 554.307C1705.67 556.131 1702.63 557.954 1700.2 560.386C1697.77 562.817 1695.95 564.641 1694.73 567.68C1692.91 570.719 1691.69 573.759 1690.47 576.798C1689.26 579.837 1688.04 583.485 1687.44 586.524C1686.83 590.171 1686.22 593.21 1686.22 596.857C1686.22 601.72 1686.83 605.975 1688.65 610.838C1689.87 615.093 1692.3 618.74 1695.34 622.388C1697.16 624.211 1698.98 625.427 1701.42 626.643C1702.63 627.251 1705.06 627.858 1708.1 627.858ZM1752.48 603.544C1752.48 611.446 1754.3 618.133 1757.34 621.78C1760.99 625.427 1764.63 627.858 1769.5 627.858C1773.14 627.858 1776.79 626.643 1781.05 624.819C1785.3 622.388 1788.34 619.348 1791.99 615.701C1795.03 611.446 1798.07 606.583 1799.89 600.505C1802.32 594.426 1802.93 587.74 1802.93 579.837C1802.93 576.798 1802.32 573.759 1801.71 570.719C1801.11 567.68 1799.89 565.249 1798.67 563.425C1797.46 560.994 1795.63 559.778 1793.2 558.562C1790.77 557.346 1788.34 556.739 1785.91 556.739C1781.05 556.739 1776.79 558.562 1771.93 560.994C1767.67 564.033 1764.03 567.68 1761.59 572.543C1758.56 577.406 1756.12 582.269 1754.91 587.74C1753.69 592.602 1752.48 598.073 1752.48 603.544ZM1786.52 567.072C1789.56 567.072 1791.99 568.896 1793.2 571.327C1795.03 574.367 1795.63 578.014 1795.63 582.269C1795.63 587.74 1795.03 592.602 1793.81 597.465C1792.6 601.72 1790.77 605.368 1788.95 609.015C1786.52 612.054 1784.69 614.485 1782.26 616.309C1779.83 618.133 1777.4 618.741 1774.97 618.741C1772.54 618.741 1770.1 617.525 1768.28 615.093C1766.46 612.662 1765.85 609.015 1765.85 603.544C1765.85 599.897 1766.46 595.642 1767.67 591.387C1768.89 587.132 1770.71 583.484 1771.93 579.837C1773.75 576.19 1776.18 573.151 1778.61 571.327C1781.05 568.896 1783.48 567.072 1786.52 567.072ZM1869.79 622.996C1871.01 622.996 1871.62 622.388 1872.83 621.78C1874.05 621.172 1874.66 620.564 1875.26 619.348C1876.48 617.525 1877.7 615.701 1878.91 612.054C1880.74 609.015 1882.56 605.368 1884.99 601.112C1887.42 596.857 1889.85 593.21 1892.28 588.955C1894.72 584.7 1897.76 581.053 1900.19 577.406C1902.62 573.759 1905.05 571.327 1906.87 568.896C1909.3 566.464 1910.52 565.249 1912.34 565.249C1913.56 565.249 1914.17 565.857 1914.17 566.464C1914.78 567.072 1914.78 568.288 1915.38 568.896C1915.99 570.112 1915.99 570.719 1915.99 571.935V574.367C1915.99 579.837 1915.38 584.7 1914.78 590.171C1914.17 595.642 1913.56 600.505 1913.56 605.975C1913.56 608.407 1913.56 610.838 1914.17 613.27C1914.78 616.309 1914.78 618.74 1915.99 621.172C1917.21 623.603 1918.42 626.035 1919.64 627.251C1921.46 629.074 1923.89 629.682 1926.33 629.682C1929.36 629.682 1933.01 628.466 1936.66 626.643C1940.31 624.819 1943.95 621.78 1947.6 619.348C1951.25 616.309 1954.29 613.27 1957.33 610.23C1960.37 607.191 1962.8 604.152 1964.62 601.72C1965.23 601.113 1965.23 600.505 1965.84 599.897C1966.44 599.289 1966.44 598.681 1966.44 598.073C1966.44 596.857 1965.84 596.25 1965.84 595.642C1965.23 594.426 1964.62 594.426 1963.4 594.426C1962.19 594.426 1960.97 595.034 1960.37 596.25C1959.15 597.465 1958.54 598.681 1957.93 599.289C1956.72 601.113 1954.89 602.936 1953.07 605.368C1950.64 607.799 1948.21 610.23 1945.78 612.662C1943.35 615.093 1940.31 616.917 1937.87 618.741C1935.44 620.564 1933.01 621.172 1931.19 621.172C1929.97 621.172 1928.76 620.564 1928.15 619.956C1927.54 618.741 1926.93 618.133 1926.33 616.917C1925.72 615.701 1925.72 614.485 1925.72 613.27V610.23C1925.72 603.544 1926.32 596.25 1926.93 590.171C1928.15 583.485 1928.15 576.798 1928.15 570.112C1928.15 568.288 1927.54 566.464 1927.54 565.249C1926.93 563.425 1926.32 561.601 1925.72 560.386C1924.5 558.562 1923.29 557.347 1922.07 556.739C1920.25 555.523 1919.03 554.915 1917.21 554.915C1914.17 554.915 1911.74 556.131 1909.3 557.954C1906.27 559.778 1904.44 561.601 1902.62 563.425C1900.19 565.857 1898.36 568.288 1896.54 571.327C1894.72 574.367 1892.89 576.798 1891.07 579.23C1888.64 582.877 1886.21 585.916 1883.77 589.563C1881.34 593.21 1878.91 596.25 1877.09 599.897C1876.48 600.505 1876.48 601.113 1875.87 601.72C1875.26 602.936 1874.66 603.544 1874.66 603.544C1874.05 603.544 1874.05 602.936 1873.44 601.72C1872.83 600.505 1872.83 599.289 1872.83 598.073C1872.83 596.857 1872.23 595.034 1872.23 593.818V590.779C1872.23 587.132 1872.23 584.092 1872.83 580.445C1872.83 576.798 1873.44 573.759 1873.44 570.112C1873.44 568.896 1873.44 567.072 1872.83 565.857C1872.23 564.033 1872.23 562.209 1871.62 560.994C1871.01 559.17 1870.4 557.954 1869.19 556.739C1867.97 555.523 1866.75 554.915 1864.93 554.915C1862.5 554.915 1860.07 556.131 1857.03 558.562C1853.99 560.994 1851.56 564.033 1848.52 567.072C1845.48 570.719 1843.05 573.759 1841.22 577.406C1838.79 581.053 1836.97 583.485 1835.75 585.308C1836.36 581.661 1836.97 578.622 1838.19 574.975C1839.4 571.327 1840.01 568.288 1841.22 565.249C1841.83 564.033 1842.44 562.817 1843.05 560.994C1843.66 559.17 1844.87 557.346 1845.48 556.131C1846.09 554.307 1846.7 552.484 1847.3 551.268C1847.91 549.444 1847.91 548.229 1847.91 547.013C1847.91 545.797 1847.3 544.581 1846.69 543.974C1846.09 542.758 1844.87 542.758 1843.66 542.758C1841.22 542.758 1838.79 543.366 1835.75 544.581C1832.71 545.797 1830.89 547.621 1829.67 550.052C1829.07 551.876 1827.85 554.307 1827.24 557.346C1826.03 560.994 1824.81 565.249 1824.2 570.112C1822.99 574.974 1821.77 579.837 1821.16 585.308C1819.95 590.779 1818.73 595.642 1818.13 600.505C1816.91 605.368 1816.3 609.623 1815.69 613.878C1815.09 618.133 1814.48 620.564 1814.48 622.388C1814.48 623.603 1815.09 624.211 1815.69 625.427C1816.3 626.643 1817.52 626.643 1818.73 626.643C1820.56 626.643 1821.77 626.035 1822.99 624.819C1824.2 623.603 1824.81 622.388 1825.42 621.172C1826.03 619.348 1827.24 617.525 1829.07 614.486C1830.89 611.446 1832.71 607.799 1835.15 604.152C1837.58 599.897 1840.01 596.25 1842.44 591.995C1845.48 587.74 1847.91 584.092 1850.34 580.445C1852.77 576.798 1855.21 574.367 1857.03 571.935C1859.46 569.504 1860.68 568.288 1861.89 568.288C1863.11 568.288 1863.72 568.896 1863.72 570.112C1863.72 571.327 1864.32 571.935 1864.32 572.543V577.406V585.916C1864.32 588.955 1864.32 591.995 1864.93 595.642C1864.93 599.289 1865.54 602.328 1865.54 605.975C1866.15 609.623 1866.15 612.662 1866.75 615.093C1867.36 618.133 1867.97 620.564 1868.58 622.388C1867.36 621.78 1868.58 622.996 1869.79 622.996Z" fill="#252220"/>
<path fill-rule="evenodd" clip-rule="evenodd" d="M769.051 0.627531L1232.61 39.0153C1255.19 40.3056 1251.64 44.8219 1240.35 55.1446L1014.22 276.439C1001.64 290.31 998.733 286.439 983.571 269.987L895.183 169.985C883.569 157.727 881.634 155.146 901.634 148.049L1121.64 77.4031L874.214 121.275C855.827 125.146 858.085 127.727 844.859 109.339L762.6 15.1439C752.277 3.53081 753.245 -1.95316 769.051 0.627531Z" fill="#00A4D5"/>
<rect x="8.77344" y="766.422" width="271" height="17" fill="#FF630B"/>
<rect x="1695.77" y="766.422" width="271" height="17" fill="#139E3A"/>
</svg>
