<svg xmlns="http://www.w3.org/2000/svg" xmlns:xlink="http://www.w3.org/1999/xlink" width="27.385" height="21" viewBox="0 0 27.385 21">
  <defs>
    <linearGradient id="linear-gradient" x1="0.5" x2="0.5" y2="1" gradientUnits="objectBoundingBox">
      <stop offset="0" stop-color="#ffbe68"/>
      <stop offset="1" stop-color="#fba562"/>
    </linearGradient>
  </defs>
  <g id="Flight_Grey" data-name="Flight Grey" transform="translate(0 0)">
    <path id="Path_78671" data-name="Path 78671" d="M1205.735,1808.535l-2.908-1.34,3.269-1.883.636.369c.309.183.448.417.344.671l-.808,2.424Z" transform="translate(-1198.183 -1801.909)" fill="#fff" fill-rule="evenodd"/>
    <path id="Path_78672" data-name="Path 78672" d="M1205.712,1808.247l.327.146.757-2.212c.034-.155-.052-.3-.275-.43l-.533-.311-2.838,1.63,2.562,1.177Zm.448.624a.168.168,0,0,1-.086-.017l-.516-.24h0l-2.925-1.341a.233.233,0,0,1-.12-.176.208.208,0,0,1,.1-.184l3.268-1.884a.21.21,0,0,1,.207,0l.636.37a.761.761,0,0,1,.447.912l-.826,2.424a.175.175,0,0,1-.12.12A.165.165,0,0,1,1206.16,1808.871Z" transform="translate(-1198.075 -1801.803)" fill-rule="evenodd"/>
    <path id="Path_78673" data-name="Path 78673" d="M1229.324,1816.516l-2.512-1.457c-.637-.208-1.411,1.166-.929,1.593l2.529,1.459c-.292-.248-.1-.768.035-1.039a1.433,1.433,0,0,1,.43-.468A.54.54,0,0,1,1229.324,1816.516Z" transform="translate(-1206.049 -1805.249)" fill="#fff" fill-rule="evenodd"/>
    <path id="Path_78674" data-name="Path 78674" d="M1226.572,1815.122c-.155,0-.4.194-.567.494-.19.323-.224.659-.086.777l2.03,1.177a1.66,1.66,0,0,1,.224-.7,1.475,1.475,0,0,1,.5-.538v-.007l-2.064-1.2-.035,0Zm1.737,3.084a.212.212,0,0,1-.1-.027l-2.528-1.457a1.055,1.055,0,0,1-.035-1.307c.258-.431.689-.8,1.118-.654l2.563,1.476a.2.2,0,0,1,.086.258.2.2,0,0,1-.241.108.312.312,0,0,0-.275.069,1.2,1.2,0,0,0-.378.4c-.121.22-.241.634-.069.782a.2.2,0,0,1-.138.355Z" transform="translate(-1205.947 -1805.143)" fill-rule="evenodd"/>
    <path id="Path_78675" data-name="Path 78675" d="M1230.143,1818.809a1.473,1.473,0,0,0,.671-1.168c0-.43-.293-.6-.671-.39a1.469,1.469,0,0,0-.67,1.168C1229.473,1818.85,1229.765,1819.024,1230.143,1818.809Z" transform="translate(-1207.334 -1805.978)" fill="#c3c3c3" fill-rule="evenodd"/>
    <path id="Path_78676" data-name="Path 78676" d="M1230.345,1817.257a.385.385,0,0,0-.206.065,1.284,1.284,0,0,0-.568.992.323.323,0,0,0,.086.261.3.3,0,0,0,.275-.048h0a1.285,1.285,0,0,0,.568-.992.324.324,0,0,0-.087-.262.14.14,0,0,0-.068-.017Zm-.619,1.739a.587.587,0,0,1-.275-.07.67.67,0,0,1-.292-.611,1.7,1.7,0,0,1,.773-1.343.7.7,0,0,1,.689-.048.673.673,0,0,1,.292.613,1.7,1.7,0,0,1-.774,1.344h0A.846.846,0,0,1,1229.726,1819Z" transform="translate(-1207.226 -1805.872)" fill-rule="evenodd"/>
    <path id="Path_78677" data-name="Path 78677" d="M1224.517,1815.968q2.27-3.623,4.541-7.245a.507.507,0,0,0,.052-.491.828.828,0,0,0-.413-.428l-1.6-.926-7.346,6.344Z" transform="translate(-1203.995 -1802.447)" fill="#c3c3c3" fill-rule="evenodd"/>
    <path id="Path_78678" data-name="Path 78678" d="M1220,1813.086l4.352,2.5,4.438-7.082a.292.292,0,0,0,.035-.31.67.67,0,0,0-.327-.325l-1.479-.856-7.018,6.068Zm4.421,2.98a.23.23,0,0,1-.1-.028l-4.765-2.744a.19.19,0,0,1-.086-.156.172.172,0,0,1,.068-.172l7.328-6.346a.213.213,0,0,1,.241-.022l1.6.927a1.027,1.027,0,0,1,.5.53.723.723,0,0,1-.069.671l-4.542,7.246A.223.223,0,0,1,1224.417,1816.065Z" transform="translate(-1203.895 -1802.341)" fill-rule="evenodd"/>
    <path id="Path_78679" data-name="Path 78679" d="M1221.914,1823.322c-.722-.194-1.513-.4-2.219-.662a6.439,6.439,0,0,1-.774-.376l-4.989-2.881-5.28-3.047-.568-.414c-1.324-.961-2.649-1.923-3.99-2.885l-4.163-3.8c-.757-.242-.361-2.143.981-1.678l8.531,3.929,5.626,2.956,2.133,1.231,1.376.817,3.045,1.811a4.973,4.973,0,0,1,1.342,1.352c1.376,1.51,1.273,1.724,1.273,2.929a.681.681,0,0,1-.378.517l-.207.118a1.893,1.893,0,0,1-1.083.214A4.492,4.492,0,0,1,1221.914,1823.322Z" transform="translate(-1197.057 -1802.664)" fill="#fff" fill-rule="evenodd"/>
    <path id="Path_78680" data-name="Path 78680" d="M1221.862,1823.022l.069.015a3.568,3.568,0,0,0,.551.115,1.779,1.779,0,0,0,.981-.192l.189-.115c.189-.124.258-.186.275-.367v-.213c.017-.976.017-1.208-1.2-2.555a2.02,2.02,0,0,1-.223-.28,3.79,3.79,0,0,0-1.084-1.034l-4.422-2.628-2.132-1.23-5.608-2.954-8.533-3.923a.757.757,0,0,0-.775.113.985.985,0,0,0-.275.885.344.344,0,0,0,.224.3.129.129,0,0,1,.068.043l4.163,3.8,4.542,3.283,10.253,5.92a6.189,6.189,0,0,0,.756.361c.654.249,1.394.446,2.1.634l.086.021Zm.774.537c-.052,0-.12,0-.172,0a3.963,3.963,0,0,1-.636-.127l-.07-.014v0l-.085-.021c-.705-.192-1.463-.39-2.15-.65a6.585,6.585,0,0,1-.792-.383l-10.287-5.933-4.576-3.309-4.146-3.782a.761.761,0,0,1-.447-.589,1.351,1.351,0,0,1,.413-1.272,1.147,1.147,0,0,1,1.187-.186l8.549,3.936,5.626,2.96,3.526,2.052,3.044,1.812a3.849,3.849,0,0,1,1.187,1.136c.086.1.154.186.206.254,1.273,1.406,1.324,1.747,1.324,2.83v.235a.88.88,0,0,1-.481.687l-.206.124A2.056,2.056,0,0,1,1222.636,1823.559Z" transform="translate(-1196.953 -1802.559)" fill-rule="evenodd"/>
    <path id="Path_78681" data-name="Path 78681" d="M1221.916,1823.661c-.722-.195-1.514-.4-2.219-.662a6.529,6.529,0,0,1-.774-.376l-4.989-2.881-5.28-3.048-.568-.413c-1.325-.961-2.649-1.923-3.991-2.885l-4.163-3.8c-.379-.12-.464-.656-.292-1.1.877,1.222,5.126,4.683,9.393,7.368,6.124,3.851,12.918,8.012,14.845,6.934a.919.919,0,0,0,.361-.366v.515a.681.681,0,0,1-.378.517l-.207.119a1.894,1.894,0,0,1-1.084.214A4.491,4.491,0,0,1,1221.916,1823.661Z" transform="translate(-1197.059 -1803.003)" fill="#fff" fill-rule="evenodd"/>
    <path id="Path_78682" data-name="Path 78682" d="M1221.86,1823.36l.069.015a3.48,3.48,0,0,0,.55.116,1.775,1.775,0,0,0,.981-.192l.189-.115c.189-.121.258-.183.275-.354l-.052.031c-1.978,1.112-8.257-2.646-15.052-6.932a54.316,54.316,0,0,1-9.169-7.076.7.7,0,0,0,.051.276.326.326,0,0,0,.19.174.123.123,0,0,1,.068.042l4.164,3.795,4.542,3.284,10.252,5.92a6.1,6.1,0,0,0,.757.361,21.906,21.906,0,0,0,2.1.635l.086.021Zm.774.537c-.052,0-.12,0-.172,0a3.982,3.982,0,0,1-.636-.127l-.069-.014v0l-.085-.021c-.705-.193-1.463-.391-2.15-.648a6.99,6.99,0,0,1-.792-.385l-10.287-5.934-4.576-3.309-4.146-3.782a.745.745,0,0,1-.378-.368,1.227,1.227,0,0,1,0-.987.2.2,0,0,1,.344-.046c.894,1.219,5.16,4.68,9.34,7.315,4.765,2.995,12.729,8,14.656,6.929a.793.793,0,0,0,.258-.262l.035-.046a.2.2,0,0,1,.223-.074.193.193,0,0,1,.137.191v.517a.873.873,0,0,1-.481.685l-.206.126A2.056,2.056,0,0,1,1222.634,1823.9Z" transform="translate(-1196.951 -1802.897)" fill-rule="evenodd"/>
    <path id="Path_78683" data-name="Path 78683" d="M1232.244,1826.644c-.963.555-1.72.041-2.614-.417l.4.03c1.2.093,2.8-.892,2.494-1.545C1233.053,1825.471,1233.4,1825.979,1232.244,1826.644Z" transform="translate(-1207.387 -1808.571)" fill="#c3c3c3" fill-rule="evenodd"/>
    <path id="Path_78684" data-name="Path 78684" d="M1232.134,1826.538h0Zm-1.737-.2a1.607,1.607,0,0,0,1.634.022h0c.413-.229.619-.44.671-.646a.82.82,0,0,0-.155-.556c-.017.031-.052.063-.069.1a3.217,3.217,0,0,1-2.081,1.082Zm.895.644a3.564,3.564,0,0,1-1.583-.537l-.292-.144a.212.212,0,0,1-.1-.234.223.223,0,0,1,.224-.148l.378.03a2.91,2.91,0,0,0,2.237-.926.392.392,0,0,0,.086-.335.193.193,0,0,1,.069-.26.211.211,0,0,1,.275.061c.309.448.6.869.5,1.314-.068.328-.326.616-.842.909h0A1.852,1.852,0,0,1,1231.292,1826.983Z" transform="translate(-1207.277 -1808.465)" fill-rule="evenodd"/>
    <path id="Path_78685" data-name="Path 78685" d="M1226.222,1824.6l-.069-.043a.208.208,0,0,0-.086-.026v.343a.448.448,0,0,0,.189.344l.086.043a.146.146,0,0,0,.069.026.1.1,0,0,0,.017-.069v-.273A.42.42,0,0,0,1226.222,1824.6Z" transform="translate(-1206.165 -1808.508)" fill="#bdedf8" fill-rule="evenodd"/>
    <path id="Path_78686" data-name="Path 78686" d="M1226.3,1825.381l-.018,0a.383.383,0,0,1-.155-.052l-.069-.043a.65.65,0,0,1-.31-.519v-.273a.359.359,0,0,1,.018-.14.209.209,0,0,1,.223-.131.409.409,0,0,1,.155.052l.069.043a.65.65,0,0,1,.309.52v.273a.386.386,0,0,1-.034.139A.19.19,0,0,1,1226.3,1825.381Z" transform="translate(-1206.056 -1808.402)" fill="#c3c3c3" fill-rule="evenodd"/>
    <path id="Path_78687" data-name="Path 78687" d="M1224.326,1823.5c-.034-.013-.051-.027-.085-.041a.128.128,0,0,0-.069-.026.093.093,0,0,0-.017.069v.272a.422.422,0,0,0,.206.345c.018.014.052.03.069.041a.191.191,0,0,0,.085.028v-.341A.452.452,0,0,0,1224.326,1823.5Z" transform="translate(-1205.507 -1808.131)" fill="#bdedf8" fill-rule="evenodd"/>
    <path id="Path_78688" data-name="Path 78688" d="M1224.407,1824.282l-.034,0a.378.378,0,0,1-.155-.053l-.069-.043a.652.652,0,0,1-.31-.52v-.272a.379.379,0,0,1,.034-.141.2.2,0,0,1,.207-.131.366.366,0,0,1,.154.055l-.017.2v0l.086-.167a.658.658,0,0,1,.309.523v.271a.376.376,0,0,1-.017.14A.227.227,0,0,1,1224.407,1824.282Z" transform="translate(-1205.399 -1808.025)" fill="#c3c3c3" fill-rule="evenodd"/>
    <path id="Path_78689" data-name="Path 78689" d="M1222.423,1822.4c-.017-.014-.052-.027-.069-.041a.22.22,0,0,0-.087-.026v.341a.453.453,0,0,0,.19.346.2.2,0,0,1,.068.042.4.4,0,0,0,.087.026c0-.019.017-.044.017-.071v-.272A.472.472,0,0,0,1222.423,1822.4Z" transform="translate(-1204.859 -1807.754)" fill="#bdedf8" fill-rule="evenodd"/>
    <path id="Path_78690" data-name="Path 78690" d="M1222.5,1823.184h-.018a.4.4,0,0,1-.155-.052l-.052-.028a.637.637,0,0,1-.327-.536v-.272a.361.361,0,0,1,.018-.139.2.2,0,0,1,.206-.13.43.43,0,0,1,.172.051l.068.039v0a.639.639,0,0,1,.293.521v.272a.36.36,0,0,1-.017.139A.2.2,0,0,1,1222.5,1823.184Z" transform="translate(-1204.751 -1807.649)" fill="#c3c3c3" fill-rule="evenodd"/>
    <path id="Path_78691" data-name="Path 78691" d="M1220.51,1821.3a.238.238,0,0,0-.069-.041.134.134,0,0,0-.068-.026.09.09,0,0,0-.018.068v.272a.424.424,0,0,0,.206.346.25.25,0,0,0,.07.041.14.14,0,0,0,.068.028.1.1,0,0,0,.017-.071v-.271A.422.422,0,0,0,1220.51,1821.3Z" transform="translate(-1204.203 -1807.378)" fill="#bdedf8" fill-rule="evenodd"/>
    <path id="Path_78692" data-name="Path 78692" d="M1220.591,1822.087s0,0-.017,0a.379.379,0,0,1-.155-.054l-.069-.039a.661.661,0,0,1-.309-.524v-.271a.389.389,0,0,1,.034-.145.205.205,0,0,1,.207-.127.435.435,0,0,1,.154.053l.069.043a.651.651,0,0,1,.309.519v.272a.366.366,0,0,1-.034.14A.19.19,0,0,1,1220.591,1822.087Z" transform="translate(-1204.095 -1807.271)" fill="#c3c3c3" fill-rule="evenodd"/>
    <path id="Path_78693" data-name="Path 78693" d="M1218.615,1820.205a.233.233,0,0,1-.069-.041.283.283,0,0,0-.086-.026c0,.019-.018.043-.018.069v.272a.473.473,0,0,0,.207.346c.017.014.051.027.069.041a.223.223,0,0,0,.086.027v-.343A.451.451,0,0,0,1218.615,1820.205Z" transform="translate(-1203.545 -1807)" fill="#bdedf8" fill-rule="evenodd"/>
    <path id="Path_78694" data-name="Path 78694" d="M1218.7,1820.987c-.018,0-.018,0-.018,0a.366.366,0,0,1-.171-.052l-.069-.043a.634.634,0,0,1-.293-.52v-.272a.346.346,0,0,1,.018-.139.2.2,0,0,1,.206-.133.444.444,0,0,1,.172.055l.069.039a.64.64,0,0,1,.292.521v.272a.375.375,0,0,1-.017.14A.2.2,0,0,1,1218.7,1820.987Z" transform="translate(-1203.447 -1806.893)" fill="#c3c3c3" fill-rule="evenodd"/>
    <path id="Path_78695" data-name="Path 78695" d="M1216.711,1819.106l-.069-.041a.212.212,0,0,0-.085-.027v.343a.452.452,0,0,0,.189.346l.086.041a.131.131,0,0,0,.068.026.09.09,0,0,0,.018-.068v-.272A.423.423,0,0,0,1216.711,1819.106Z" transform="translate(-1202.898 -1806.623)" fill="#bdedf8" fill-rule="evenodd"/>
    <path id="Path_78696" data-name="Path 78696" d="M1216.792,1819.89h-.017a.391.391,0,0,1-.155-.052l-.068-.044a.655.655,0,0,1-.31-.52V1819a.372.372,0,0,1,.034-.141.184.184,0,0,1,.207-.131.365.365,0,0,1,.154.053l.07.043a.653.653,0,0,1,.309.52v.271a.369.369,0,0,1-.034.139A.189.189,0,0,1,1216.792,1819.89Z" transform="translate(-1202.79 -1806.517)" fill="#c3c3c3" fill-rule="evenodd"/>
    <path id="Path_78697" data-name="Path 78697" d="M1214.868,1818.04c-.034-.014-.051-.028-.086-.042a.169.169,0,0,0-.069-.027c0,.021-.017.043-.017.07v.272a.471.471,0,0,0,.207.346c.017.014.051.028.068.041a.2.2,0,0,0,.086.026v-.34A.449.449,0,0,0,1214.868,1818.04Z" transform="translate(-1202.259 -1806.256)" fill="#bdedf8" fill-rule="evenodd"/>
    <path id="Path_78698" data-name="Path 78698" d="M1214.958,1818.823h-.017a.51.51,0,0,1-.172-.051l-.068-.043a.641.641,0,0,1-.293-.522v-.272a.379.379,0,0,1,.017-.139.208.208,0,0,1,.207-.133.381.381,0,0,1,.156.054l.085.041h0a.638.638,0,0,1,.292.522v.271a.368.368,0,0,1-.017.14A.2.2,0,0,1,1214.958,1818.823Z" transform="translate(-1202.16 -1806.151)" fill="#c3c3c3" fill-rule="evenodd"/>
    <path id="Path_78699" data-name="Path 78699" d="M1212.965,1816.942c-.016-.014-.052-.027-.068-.041a.189.189,0,0,0-.086-.028v.343a.448.448,0,0,0,.189.344c.035.016.052.03.086.044a.145.145,0,0,0,.069.025c0-.019.017-.043.017-.069v-.274A.423.423,0,0,0,1212.965,1816.942Z" transform="translate(-1201.612 -1805.879)" fill="#bdedf8" fill-rule="evenodd"/>
    <path id="Path_78700" data-name="Path 78700" d="M1213.046,1817.725l-.018,0a.4.4,0,0,1-.155-.052l-.085-.044a.675.675,0,0,1-.292-.518v-.274a.372.372,0,0,1,.034-.144.177.177,0,0,1,.189-.125.387.387,0,0,1,.172.055l.069.039h0a.653.653,0,0,1,.31.52v.273a.381.381,0,0,1-.035.141A.2.2,0,0,1,1213.046,1817.725Z" transform="translate(-1201.504 -1805.773)" fill="#c3c3c3" fill-rule="evenodd"/>
    <path id="Path_78701" data-name="Path 78701" d="M1214.124,1825.368l-2.528-1.458c-.62-.207-1.411,1.166-.911,1.595l2.512,1.457c-.207-.179-.156-.526-.086-.759a1.745,1.745,0,0,1,.275-.495C1213.556,1825.508,1213.849,1825.278,1214.124,1825.368Z" transform="translate(-1200.827 -1808.288)" fill="#fff" fill-rule="evenodd"/>
    <path id="Path_78702" data-name="Path 78702" d="M1211.35,1823.974c-.155,0-.4.194-.568.494-.19.324-.224.658-.087.778l2.048,1.175a1.521,1.521,0,0,1,.068-.389,2.247,2.247,0,0,1,.31-.559,1.343,1.343,0,0,1,.343-.3l-2.081-1.2a.127.127,0,0,0-.033-.005Zm1.737,3.083a.118.118,0,0,1-.086-.026l-2.529-1.459c-.344-.283-.344-.786-.035-1.3.241-.431.688-.8,1.118-.657l2.564,1.476a.217.217,0,0,1,.086.258.214.214,0,0,1-.258.108c-.154-.048-.361.1-.516.276a1.435,1.435,0,0,0-.241.433c-.068.2-.086.444.035.542a.227.227,0,0,1,.035.27A.23.23,0,0,1,1213.087,1827.057Z" transform="translate(-1200.718 -1808.183)" fill-rule="evenodd"/>
    <path id="Path_78703" data-name="Path 78703" d="M1213.24,1822.474c-4.18.876-8.376,1.75-12.556,2.625a2.286,2.286,0,0,1-1.584-.205l-1.616-.928,10.992-4.237Z" transform="translate(-1196.348 -1806.86)" fill="#c3c3c3" fill-rule="evenodd"/>
    <path id="Path_78704" data-name="Path 78704" d="M1197.847,1823.9l1.239.716a2.176,2.176,0,0,0,1.462.183l12.025-2.517-4.214-2.432-10.511,4.051Zm2.2,1.354a2.274,2.274,0,0,1-1.152-.288l-1.6-.928a.183.183,0,0,1-.1-.191.189.189,0,0,1,.12-.172l10.992-4.237a.193.193,0,0,1,.172.014l4.765,2.746a.193.193,0,0,1,.085.206.178.178,0,0,1-.155.165l-12.541,2.623A2.929,2.929,0,0,1,1200.049,1825.252Z" transform="translate(-1196.247 -1806.755)" fill-rule="evenodd"/>
    <path id="Path_78705" data-name="Path 78705" d="M1201.831,1811.114l-3.957.59a1.921,1.921,0,0,1-1.17-.2l-.636-.369,3.269-1.884Z" transform="translate(-1195.862 -1803.26)" fill="#fff" fill-rule="evenodd"/>
    <path id="Path_78706" data-name="Path 78706" d="M1196.356,1811.024l.344.194a1.655,1.655,0,0,0,1.032.178l3.475-.516-2-1.5-2.855,1.641Zm1.135.791a1.984,1.984,0,0,1-1-.248l-.637-.369a.2.2,0,0,1,0-.351l3.268-1.882a.2.2,0,0,1,.223.012l2.494,1.869a.2.2,0,0,1,.069.211.2.2,0,0,1-.155.152l-3.974.588A2.386,2.386,0,0,1,1197.491,1811.816Z" transform="translate(-1195.754 -1803.155)" fill-rule="evenodd"/>
    <path id="Path_78707" data-name="Path 78707" d="M1199.818,1805.212l-.894-4.774,1.393.8,3.251,5.874Z" transform="translate(-1196.843 -1800.235)" fill-rule="evenodd" fill="url(#linear-gradient)"/>
    <path id="Path_78708" data-name="Path 78708" d="M1199.907,1804.972l3.062,1.557-2.907-5.251-.946-.552.792,4.246Zm3.561,2.235a.155.155,0,0,1-.087-.02l-3.749-1.9a.182.182,0,0,1-.1-.143l-.894-4.775a.214.214,0,0,1,.068-.2.217.217,0,0,1,.224-.012l1.393.8a.4.4,0,0,1,.069.078l3.251,5.876a.2.2,0,0,1-.016.238A.246.246,0,0,1,1203.467,1807.207Z" transform="translate(-1196.741 -1800.129)" fill-rule="evenodd"/>
    <path id="Path_78709" data-name="Path 78709" d="M1230.176,1818.46a.213.213,0,0,1-.1-.027l-.4-.234a.2.2,0,0,1-.086-.275.205.205,0,0,1,.275-.075l.413.233a.186.186,0,0,1,.068.277A.193.193,0,0,1,1230.176,1818.46Z" transform="translate(-1207.366 -1806.205)" fill-rule="evenodd"/>
    <path id="Path_78710" data-name="Path 78710" d="M1215.079,1827.769a1.47,1.47,0,0,0,.671-1.167c0-.429-.293-.6-.671-.389a1.472,1.472,0,0,0-.671,1.168C1214.408,1827.81,1214.7,1827.984,1215.079,1827.769Z" transform="translate(-1202.16 -1809.055)" fill="#c3c3c3" fill-rule="evenodd"/>
    <path id="Path_78711" data-name="Path 78711" d="M1215.28,1826.217a.393.393,0,0,0-.206.064,1.3,1.3,0,0,0-.585.993c0,.129.034.227.1.262a.3.3,0,0,0,.275-.048,1.3,1.3,0,0,0,.585-.993.327.327,0,0,0-.1-.261.158.158,0,0,0-.069-.017Zm-.619,1.74a.545.545,0,0,1-.275-.072.669.669,0,0,1-.293-.611,1.7,1.7,0,0,1,.775-1.343.686.686,0,0,1,.688-.047.7.7,0,0,1,.293.61,1.7,1.7,0,0,1-.774,1.344A.818.818,0,0,1,1214.661,1827.958Z" transform="translate(-1202.052 -1808.95)" fill-rule="evenodd"/>
    <path id="Path_78712" data-name="Path 78712" d="M1215.112,1827.421a.208.208,0,0,1-.1-.028l-.413-.232a.217.217,0,0,1-.069-.277.2.2,0,0,1,.275-.074l.413.235a.213.213,0,0,1,.069.274A.2.2,0,0,1,1215.112,1827.421Z" transform="translate(-1202.193 -1809.283)" fill-rule="evenodd"/>
    <path id="Path_95187" data-name="Path 95187" d="M1199.818,1805.212l-.894-4.774,1.393.8,3.251,5.874Z" transform="translate(-1196.843 -1800.235)" fill="#c3c3c3" fill-rule="evenodd"/>
  </g>
</svg>
