<svg id="Hotel_Grey" data-name="Hotel Grey" xmlns="http://www.w3.org/2000/svg" width="26.477" height="23.636" viewBox="0 0 26.477 23.636">
  <path id="Path_78713" data-name="Path 78713" d="M2616.809,1233.476l12.447-7.188,13.672,7.892-12.447,7.187Z" transform="translate(-2616.629 -1218.872)" fill="#fff" fill-rule="evenodd"/>
  <path id="Path_78714" data-name="Path 78714" d="M2642.448,1234.049l-12.1,6.983-13.328-7.688,12.1-6.984,13.328,7.688Zm-12.1,7.361a.2.2,0,0,0,.09-.026l12.447-7.187a.158.158,0,0,0,.09-.149.166.166,0,0,0-.09-.154L2629.209,1226a.191.191,0,0,0-.18,0l-12.446,7.187a.171.171,0,0,0-.09.153.156.156,0,0,0,.09.148l13.671,7.892A.2.2,0,0,0,2630.345,1241.411Z" transform="translate(-2616.494 -1218.74)" fill-rule="evenodd"/>
  <path id="Path_78715" data-name="Path 78715" d="M2616.81,1247.314l12.447-7.187v.967l-12.447,7.187Z" transform="translate(-2602.958 -1224.818)" fill="#fff" fill-rule="evenodd"/>
  <path id="Path_78716" data-name="Path 78716" d="M2628.955,1240.86l-12.1,6.981v-.56l12.088-6.985.015.565Zm-12.283,7.461a.154.154,0,0,0,.09-.025l12.447-7.182a.171.171,0,0,0,.09-.154v-.967a.166.166,0,0,0-.09-.154.189.189,0,0,0-.18,0l-12.447,7.187a.2.2,0,0,0-.088.153v.967a.2.2,0,0,0,.088.15A.157.157,0,0,0,2616.673,1248.321Z" transform="translate(-2602.822 -1224.685)" fill-rule="evenodd"/>
  <path id="Path_78717" data-name="Path 78717" d="M2652.3,1247.75l-13.672-7.891v-.967l13.672,7.891Z" transform="translate(-2638.453 -1224.288)" fill="#c3c3c3" fill-rule="evenodd"/>
  <path id="Path_78718" data-name="Path 78718" d="M2651.99,1246.751v.56l-13.328-7.688v-.561l13.328,7.689Zm.179,1.04a.157.157,0,0,0,.091-.024.164.164,0,0,0,.089-.15v-.967a.166.166,0,0,0-.089-.153l-13.688-7.891a.159.159,0,0,0-.164,0,.171.171,0,0,0-.09.153v.967a.17.17,0,0,0,.09.153l13.671,7.888A.158.158,0,0,0,2652.169,1247.791Z" transform="translate(-2638.318 -1224.155)" fill-rule="evenodd"/>
  <path id="Path_78719" data-name="Path 78719" d="M2623.594,1238.457l8.547-4.928-.015-9.484-8.532,4.928Z" transform="translate(-2609.712 -1217.908)" fill="#fff" fill-rule="evenodd"/>
  <path id="Path_78720" data-name="Path 78720" d="M2631.853,1233.3l-8.188,4.723v-9.08l8.174-4.725.015,9.082Zm-8.367,5.2a.2.2,0,0,0,.089-.025l8.532-4.926a.168.168,0,0,0,.09-.154v-9.484a.2.2,0,0,0-.09-.152.168.168,0,0,0-.18,0l-8.532,4.926a.165.165,0,0,0-.089.154l.014,9.484a.185.185,0,0,0,.075.153A.206.206,0,0,0,2623.486,1238.5Z" transform="translate(-2609.605 -1217.774)" fill-rule="evenodd"/>
  <path id="Path_78721" data-name="Path 78721" d="M2648.92,1237.677v-9.489l-10.34-5.959.015,9.488Z" transform="translate(-2635.039 -1217.128)" fill="#fff" fill-rule="evenodd"/>
  <path id="Path_78722" data-name="Path 78722" d="M2648.606,1228.161l.015,9.08-10-5.754v-9.082l9.981,5.756Zm.18,9.561a.2.2,0,0,0,.089-.025.169.169,0,0,0,.09-.152v-9.488a.164.164,0,0,0-.09-.149l-10.34-5.959a.172.172,0,0,0-.179,0,.2.2,0,0,0-.089.15l.014,9.488a.166.166,0,0,0,.09.154l10.325,5.958A.209.209,0,0,0,2648.786,1237.722Z" transform="translate(-2634.905 -1216.996)" fill-rule="evenodd"/>
  <path id="Path_78723" data-name="Path 78723" d="M2650.282,1213.589l-8.532,4.928.643.367,7.889-4.562Z" transform="translate(-2638.209 -1213.415)" fill="#fff" fill-rule="evenodd"/>
  <path id="Path_78724" data-name="Path 78724" d="M2649.983,1214.093l-7.725,4.455-.284-.163,8.009-4.62v.327Zm-7.725,4.838a.222.222,0,0,0,.09-.024l7.889-4.56a.168.168,0,0,0,.09-.156v-.733a.164.164,0,0,0-.09-.148.143.143,0,0,0-.165,0l-8.547,4.926a.173.173,0,0,0,0,.3l.643.368A.216.216,0,0,0,2642.258,1218.931Z" transform="translate(-2638.074 -1213.284)" fill-rule="evenodd"/>
  <path id="Path_78725" data-name="Path 78725" d="M2633.318,1219.92l.642-.368-10.34-5.963v.734Z" transform="translate(-2611.547 -1213.415)" fill="#fff" fill-rule="evenodd"/>
  <path id="Path_78726" data-name="Path 78726" d="M2633.467,1219.421l-.3.165-9.518-5.493v-.327l9.817,5.655Zm-.3.541a.186.186,0,0,0,.089-.025l.643-.366a.2.2,0,0,0,.09-.15.2.2,0,0,0-.09-.152l-10.34-5.959a.143.143,0,0,0-.165,0,.164.164,0,0,0-.089.148v.733a.167.167,0,0,0,.089.156l9.7,5.59A.106.106,0,0,0,2633.168,1219.962Z" transform="translate(-2611.398 -1213.284)" fill-rule="evenodd"/>
  <path id="Path_78727" data-name="Path 78727" d="M2634.519,1225.044l7.89-4.556-9.7-5.576-7.964,4.491Z" transform="translate(-2620.638 -1213.984)" fill="#fff" fill-rule="evenodd"/>
  <path id="Path_78728" data-name="Path 78728" d="M2641.93,1220.356l-7.545,4.352-9.413-5.433,7.6-4.3,9.353,5.377Zm-7.545,4.733a.227.227,0,0,0,.09-.023l7.889-4.562a.161.161,0,0,0,.09-.147.166.166,0,0,0-.09-.154l-9.712-5.576a.161.161,0,0,0-.165,0l-7.964,4.49a.174.174,0,0,0-.09.155.165.165,0,0,0,.09.153l9.772,5.642A.231.231,0,0,0,2634.385,1225.089Z" transform="translate(-2620.504 -1213.851)" fill-rule="evenodd"/>
  <path id="Path_78729" data-name="Path 78729" d="M2640.074,1221.928l2.032-1.179v-1.516l-2.032,1.174Z" transform="translate(-2629.076 -1215.84)" fill="#fff" fill-rule="evenodd"/>
  <path id="Path_78730" data-name="Path 78730" d="M2641.791,1220.516l-1.689.973v-1.112l1.689-.976v1.114Zm-1.853,1.453a.113.113,0,0,0,.074-.024l2.047-1.175a.2.2,0,0,0,.09-.154V1219.1a.206.206,0,0,0-.09-.154.187.187,0,0,0-.179,0l-2.032,1.179a.164.164,0,0,0-.09.15v1.521a.165.165,0,0,0,.09.149A.152.152,0,0,0,2639.938,1221.969Z" transform="translate(-2628.941 -1215.707)" fill-rule="evenodd"/>
  <path id="Path_78731" data-name="Path 78731" d="M2642.046,1219.54l2.032-1.174-1.943-1.151-2.062,1.189Z" transform="translate(-2631.049 -1214.973)" fill="#fff" fill-rule="evenodd"/>
  <path id="Path_78732" data-name="Path 78732" d="M2643.6,1218.233l-1.689.971-1.628-.933,1.7-.986,1.614.948Zm-1.689,1.352a.147.147,0,0,0,.075-.024l2.047-1.181a.186.186,0,0,0,.09-.147.205.205,0,0,0-.09-.154l-1.942-1.147a.183.183,0,0,0-.18,0l-2.062,1.19a.171.171,0,0,0-.089.154.165.165,0,0,0,.089.154l1.973,1.136A.2.2,0,0,0,2641.911,1219.585Z" transform="translate(-2630.914 -1214.841)" fill-rule="evenodd"/>
  <path id="Path_78733" data-name="Path 78733" d="M2645.609,1220.436l-1.972-1.136v1.521l1.972,1.136Z" transform="translate(-2634.612 -1215.869)" fill="#c3c3c3" fill-rule="evenodd"/>
  <path id="Path_78734" data-name="Path 78734" d="M2645.322,1220.407v1.112l-1.629-.933v-1.11l1.629.931Zm.179,1.591a.112.112,0,0,0,.074-.024.164.164,0,0,0,.09-.149V1220.3a.163.163,0,0,0-.09-.15l-1.972-1.135a.141.141,0,0,0-.165,0,.162.162,0,0,0-.09.148v1.521a.165.165,0,0,0,.09.15l1.972,1.135A.156.156,0,0,0,2645.5,1222Z" transform="translate(-2634.504 -1215.737)" fill-rule="evenodd"/>
  <path id="Path_78735" data-name="Path 78735" d="M2648.709,1233.21l-5.648-3.262.015,6.31,5.647,3.268Z" transform="translate(-2637.398 -1220.445)" fill="#c3c3c3" fill-rule="evenodd"/>
  <path id="Path_78736" data-name="Path 78736" d="M2648.41,1233.182v5.9l-5.3-3.059v-5.909l5.3,3.063Zm.179,6.385a.2.2,0,0,0,.09-.026.2.2,0,0,0,.089-.148l-.014-6.316a.166.166,0,0,0-.09-.149l-5.649-3.266a.2.2,0,0,0-.179,0,.207.207,0,0,0-.088.154l.014,6.31a.17.17,0,0,0,.089.154l5.649,3.262A.2.2,0,0,0,2648.589,1239.567Z" transform="translate(-2637.263 -1220.312)" fill-rule="evenodd"/>
  <path id="Path_78737" data-name="Path 78737" d="M2650.509,1233.416a.167.167,0,0,0,.149-.085.164.164,0,0,0-.06-.242l-1.673-.967a.179.179,0,0,0-.239.064.181.181,0,0,0,.074.244l1.674.967A.11.11,0,0,0,2650.509,1233.416Z" transform="translate(-2642.559 -1221.369)" fill-rule="evenodd"/>
  <path id="Path_78738" data-name="Path 78738" d="M2650.509,1241.144a.17.17,0,0,0,.149-.083.165.165,0,0,0-.06-.244l-1.673-.961a.171.171,0,0,0-.239.064.177.177,0,0,0,.074.238l1.674.967A.118.118,0,0,0,2650.509,1241.144Z" transform="translate(-2642.559 -1224.691)" fill-rule="evenodd"/>
  <path id="Path_78739" data-name="Path 78739" d="M2650.509,1239.212a.165.165,0,0,0,.149-.09.159.159,0,0,0-.06-.238l-1.673-.967a.176.176,0,0,0-.239.064.18.18,0,0,0,.074.242l1.674.962A.089.089,0,0,0,2650.509,1239.212Z" transform="translate(-2642.559 -1223.859)" fill-rule="evenodd"/>
  <path id="Path_78740" data-name="Path 78740" d="M2650.509,1237.281a.174.174,0,0,0,.149-.088.158.158,0,0,0-.06-.238l-1.673-.968a.173.173,0,1,0-.165.3l1.674.966A.11.11,0,0,0,2650.509,1237.281Z" transform="translate(-2642.559 -1223.029)" fill-rule="evenodd"/>
  <path id="Path_78741" data-name="Path 78741" d="M2650.509,1235.353a.173.173,0,0,0,.149-.089.166.166,0,0,0-.06-.244l-1.673-.96a.172.172,0,1,0-.165.3l1.674.966A.116.116,0,0,0,2650.509,1235.353Z" transform="translate(-2642.559 -1222.201)" fill-rule="evenodd"/>
  <path id="Path_78742" data-name="Path 78742" d="M2645.751,1236.175a.177.177,0,0,0,.09-.328l-1.793-1.029a.161.161,0,0,0-.224.063.164.164,0,0,0,.06.243l1.778,1.03A.19.19,0,0,0,2645.751,1236.175Z" transform="translate(-2635.022 -1222.527)" fill-rule="evenodd"/>
  <path id="Path_78743" data-name="Path 78743" d="M2645.751,1243.907a.172.172,0,0,0,.148-.088.165.165,0,0,0-.059-.243l-1.793-1.031a.162.162,0,0,0-.224.065.165.165,0,0,0,.06.243l1.778,1.031A.219.219,0,0,0,2645.751,1243.907Z" transform="translate(-2635.022 -1225.847)" fill-rule="evenodd"/>
  <path id="Path_78744" data-name="Path 78744" d="M2645.751,1238.11a.172.172,0,0,0,.148-.089.159.159,0,0,0-.059-.239l-1.793-1.031a.155.155,0,0,0-.224.065.16.16,0,0,0,.06.239l1.778,1.031A.2.2,0,0,0,2645.751,1238.11Z" transform="translate(-2635.022 -1223.357)" fill-rule="evenodd"/>
  <path id="Path_78745" data-name="Path 78745" d="M2645.751,1241.972a.168.168,0,0,0,.148-.085.166.166,0,0,0-.059-.244l-1.793-1.03a.157.157,0,0,0-.224.063.165.165,0,0,0,.06.244l1.778,1.031A.2.2,0,0,0,2645.751,1241.972Z" transform="translate(-2635.022 -1225.016)" fill-rule="evenodd"/>
  <path id="Path_78746" data-name="Path 78746" d="M2645.751,1240.042a.163.163,0,0,0,.148-.09.159.159,0,0,0-.059-.237l-1.793-1.031a.172.172,0,0,0-.164.3l1.778,1.031A.206.206,0,0,0,2645.751,1240.042Z" transform="translate(-2635.022 -1224.188)" fill-rule="evenodd"/>
  <path id="Path_78747" data-name="Path 78747" d="M2647.9,1239.162a.175.175,0,0,0,.18-.178v-6.305a.174.174,0,0,0-.18-.173.184.184,0,0,0-.179.173v6.305A.185.185,0,0,0,2647.9,1239.162Z" transform="translate(-2639.417 -1221.543)" fill-rule="evenodd"/>
  <path id="Path_78748" data-name="Path 78748" d="M2626.5,1232.524a.319.319,0,0,0-.15.259v1.2c0,.094.06.133.15.083.9-.515,3.721-2.151,4.617-2.672a.3.3,0,0,0,.149-.252v-1.2c0-.094-.06-.135-.149-.086Z" transform="translate(-2610.402 -1220.394)" fill="#c3c3c3" fill-rule="evenodd"/>
  <path id="Path_78749" data-name="Path 78749" d="M2630.946,1229.939v1.071a.141.141,0,0,1-.059.1l-4.5,2.607v-1.065a.143.143,0,0,1,.06-.1l4.5-2.607Zm-4.662,4.194a.34.34,0,0,0,.165-.045l4.617-2.671a.513.513,0,0,0,.239-.407v-1.2a.266.266,0,0,0-.135-.248.279.279,0,0,0-.283.009l-4.618,2.677a.5.5,0,0,0-.239.407v1.2a.266.266,0,0,0,.134.248A.193.193,0,0,0,2626.284,1234.133Z" transform="translate(-2610.267 -1220.262)" fill-rule="evenodd"/>
</svg>
