<svg xmlns="http://www.w3.org/2000/svg" width="16.19" height="21.29" viewBox="0 0 16.19 21.29">
  <g id="bathroom-amenities" transform="translate(-72.371 -10.359)">
    <line id="Line_252" data-name="Line 252" x2="8.147" transform="translate(76.473 28.641)" fill="none" stroke="#8c8a8a" stroke-linecap="round" stroke-linejoin="round" stroke-miterlimit="10" stroke-width="1"/>
    <path id="Path_140868" data-name="Path 140868" d="M242.089,194.053a2.51,2.51,0,0,1,3.08,2.443" transform="translate(-162.124 -175.462)" fill="none" stroke="#8c8a8a" stroke-linecap="round" stroke-linejoin="round" stroke-miterlimit="10" stroke-width="1"/>
    <line id="Line_253" data-name="Line 253" x2="12.541" transform="translate(74.266 21.033)" fill="none" stroke="#8c8a8a" stroke-linecap="round" stroke-linejoin="round" stroke-miterlimit="10" stroke-width="1"/>
    <path id="Path_140869" data-name="Path 140869" d="M144.041,254.983,142.787,265.1h-7.525l-1.254-10.116" transform="translate(-58.488 -233.95)" fill="none" stroke="#8c8a8a" stroke-linecap="round" stroke-linejoin="round" stroke-miterlimit="10" stroke-width="1"/>
    <g id="Group_52839" data-name="Group 52839" transform="translate(73.012 11)">
      <path id="Path_140870" data-name="Path 140870" d="M83.443,19.655,85.8,18.8l1.716,4.714-2.357.858" transform="translate(-83.014 -18.476)" fill="none" stroke="#8c8a8a" stroke-linecap="round" stroke-linejoin="round" stroke-miterlimit="10" stroke-width="1"/>
      <path id="Path_140871" data-name="Path 140871" d="M73.012,11l2.145,5.892L77.622,20,78,21.033" transform="translate(-73.012 -11)" fill="none" stroke="#8c8a8a" stroke-linecap="round" stroke-linejoin="round" stroke-miterlimit="10" stroke-width="1"/>
    </g>
    <g id="Group_52840" data-name="Group 52840" transform="translate(78.788 11)">
      <path id="Path_140872" data-name="Path 140872" d="M213.487,120.952l2.768-5.748,4.714,1.716-1.027,4.032" transform="translate(-213.487 -110.919)" fill="none" stroke="#8c8a8a" stroke-linecap="round" stroke-linejoin="round" stroke-miterlimit="10" stroke-width="1"/>
      <path id="Path_140873" data-name="Path 140873" d="M280.79,70.245l2.036-1.928,2.357.858.321,2.786" transform="translate(-278.022 -65.96)" fill="none" stroke="#8c8a8a" stroke-linecap="round" stroke-linejoin="round" stroke-miterlimit="10" stroke-width="1"/>
      <path id="Path_140874" data-name="Path 140874" d="M330.31,13.357,331.168,11l2.357.858-.858,2.357" transform="translate(-325.506 -11)" fill="none" stroke="#8c8a8a" stroke-linecap="round" stroke-linejoin="round" stroke-miterlimit="10" stroke-width="1"/>
    </g>
    <path id="Path_140875" data-name="Path 140875" d="M357.3,315.979h2.811v3.846l-3.383,1.232" transform="translate(-272.047 -292.438)" fill="none" stroke="#8c8a8a" stroke-linecap="round" stroke-linejoin="round" stroke-miterlimit="10" stroke-width="1"/>
  </g>
</svg>
