<svg xmlns="http://www.w3.org/2000/svg" width="27.123" height="13.745" viewBox="0 0 27.123 13.745">
  <g id="Breakfast-Served" transform="translate(-644.3 -607)">
    <path id="Path_26" data-name="Path 26" d="M6.964,15.491a.458.458,0,0,0,.41.253H28.45a.458.458,0,0,0,.412-.253l.916-1.833A.458.458,0,0,0,29.366,13h-.94a9.626,9.626,0,0,0-8.682-9.117V3.833a1.833,1.833,0,1,0-3.665,0v.046A9.626,9.626,0,0,0,7.4,13h-.94a.458.458,0,0,0-.41.663ZM17.912,2.916a.916.916,0,0,1,.916.916H17A.916.916,0,0,1,17.912,2.916ZM17,4.749h1.833A8.708,8.708,0,0,1,27.51,13H8.313A8.708,8.708,0,0,1,17,4.749Zm11.629,9.163-.458.916H7.657L7.2,13.912Z" transform="translate(639.949 605)" fill="#8c8a8a"/>
    <path id="Path_27" data-name="Path 27" d="M34,10v.916a6.873,6.873,0,0,1,6.656,5.155l.887-.23A7.789,7.789,0,0,0,34,10Z" transform="translate(624.778 600.665)" fill="#8c8a8a"/>
    <rect id="Rectangle_6" data-name="Rectangle 6" width="0.916" height="0.916" transform="translate(656.945 610.665)" fill="#8c8a8a"/>
    <path id="Path_28" data-name="Path 28" d="M2.4,6.582h.916a.711.711,0,0,1,.189-.5,1.654,1.654,0,0,0,0-2.062.714.714,0,0,1-.189-.5A.706.706,0,0,1,3.5,3.031,1.6,1.6,0,0,0,3.866,2H2.95a.712.712,0,0,1-.189.5A1.6,1.6,0,0,0,2.4,3.526a1.6,1.6,0,0,0,.361,1.032.747.747,0,0,1,0,.993A1.6,1.6,0,0,0,2.4,6.582Z" transform="translate(641.9 605)" fill="#8c8a8a"/>
    <path id="Path_29" data-name="Path 29" d="M8.4,6.582h.916a.711.711,0,0,1,.189-.5,1.654,1.654,0,0,0,0-2.062.714.714,0,0,1-.189-.5A.706.706,0,0,1,9.5,3.031,1.6,1.6,0,0,0,9.866,2H8.95a.712.712,0,0,1-.189.5A1.6,1.6,0,0,0,8.4,3.526a1.6,1.6,0,0,0,.361,1.032.747.747,0,0,1,0,.993A1.6,1.6,0,0,0,8.4,6.582Z" transform="translate(638.649 605)" fill="#8c8a8a"/>
    <path id="Path_30" data-name="Path 30" d="M52.4,6.582h.916a.711.711,0,0,1,.189-.5,1.654,1.654,0,0,0,0-2.062.714.714,0,0,1-.189-.5.706.706,0,0,1,.189-.495A1.6,1.6,0,0,0,53.866,2H52.95a.712.712,0,0,1-.189.5,1.6,1.6,0,0,0-.361,1.03,1.6,1.6,0,0,0,.361,1.032.747.747,0,0,1,0,.993A1.6,1.6,0,0,0,52.4,6.582Z" transform="translate(614.808 605)" fill="#8c8a8a"/>
    <path id="Path_31" data-name="Path 31" d="M58.4,6.582h.916a.711.711,0,0,1,.189-.5,1.654,1.654,0,0,0,0-2.062.714.714,0,0,1-.189-.5.706.706,0,0,1,.189-.495A1.6,1.6,0,0,0,59.866,2H58.95a.711.711,0,0,1-.189.5,1.6,1.6,0,0,0-.361,1.03,1.6,1.6,0,0,0,.361,1.032.747.747,0,0,1,0,.993A1.6,1.6,0,0,0,58.4,6.582Z" transform="translate(611.557 605)" fill="#8c8a8a"/>
  </g>
</svg>
