<svg xmlns="http://www.w3.org/2000/svg" width="19.8" height="19.8" viewBox="0 0 19.8 19.8">
  <g id="Doctor_on_call" data-name="Doctor on call" transform="translate(-2.1 -2.1)">
    <path id="Path_55" data-name="Path 55" d="M18.069,17.25a.75.75,0,0,0-.75.75v1a1.252,1.252,0,0,1-1.25,1.25H13A3.254,3.254,0,0,1,9.75,17V15.706A6.758,6.758,0,0,0,15.75,9V6A2.752,2.752,0,0,0,13,3.25h-.25V3a.75.75,0,0,0-1.5,0V5a.75.75,0,0,0,1.5,0V4.75H13A1.252,1.252,0,0,1,14.25,6V9A5.25,5.25,0,0,1,3.75,9V6A1.252,1.252,0,0,1,5,4.75h.25V5a.75.75,0,0,0,1.5,0V3a.75.75,0,0,0-1.5,0v.25H5A2.752,2.752,0,0,0,2.25,6V9a6.758,6.758,0,0,0,6,6.706V17A4.756,4.756,0,0,0,13,21.75h3.069A2.753,2.753,0,0,0,18.819,19V18A.75.75,0,0,0,18.069,17.25Z" fill="#8c8a8a" stroke="#fff" stroke-width="0.3"/>
    <path id="Path_56" data-name="Path 56" d="M18.5,18.75a3.25,3.25,0,1,1,3.25-3.25A3.254,3.254,0,0,1,18.5,18.75Zm0-5a1.75,1.75,0,1,0,1.75,1.75A1.752,1.752,0,0,0,18.5,13.75Z" fill="#8c8a8a" stroke="#fff" stroke-width="0.3"/>
  </g>
</svg>
