<svg xmlns="http://www.w3.org/2000/svg" width="18.085" height="21.182" viewBox="0 0 18.085 21.182">
  <g id="drinking_water" data-name="drinking water" transform="translate(-48.097 -10.5)">
    <line id="Line_99" data-name="Line 99" x2="8.041" transform="translate(48.598 25.781)" fill="none" stroke="#8c8a8a" stroke-linecap="round" stroke-linejoin="round" stroke-miterlimit="10" stroke-width="1"/>
    <line id="Line_100" data-name="Line 100" x2="8.039" transform="translate(48.598 17.406)" fill="none" stroke="#8c8a8a" stroke-linecap="round" stroke-linejoin="round" stroke-miterlimit="10" stroke-width="1"/>
    <line id="Line_101" data-name="Line 101" x1="8.041" transform="translate(48.597 22.766)" fill="none" stroke="#8c8a8a" stroke-linecap="round" stroke-linejoin="round" stroke-miterlimit="10" stroke-width="1"/>
    <path id="Path_140685" data-name="Path 140685" d="M305.068,321.062h1.294a3.989,3.989,0,0,1,2.213.67,3.989,3.989,0,0,0,2.213.67h.535" transform="translate(-245.908 -297.291)" fill="none" stroke="#8c8a8a" stroke-linecap="round" stroke-linejoin="round" stroke-miterlimit="10" stroke-width="1"/>
    <line id="Line_102" data-name="Line 102" x2="8.039" transform="translate(48.598 28.46)" fill="none" stroke="#8c8a8a" stroke-linecap="round" stroke-linejoin="round" stroke-miterlimit="10" stroke-width="1"/>
    <rect id="Rectangle_17925" data-name="Rectangle 17925" width="4.69" height="2.722" transform="translate(50.273 11)" fill="none" stroke="#8c8a8a" stroke-linecap="round" stroke-linejoin="round" stroke-miterlimit="10" stroke-width="1"/>
    <path id="Path_140686" data-name="Path 140686" d="M48.6,94.5v-5.4a2.233,2.233,0,0,0,0-2.68s0,.138,0-5.694l1.073-.92a3.642,3.642,0,0,0,1.272-2.765s-.083,0,3.35,0A3.642,3.642,0,0,0,55.564,79.8l1.073.92v5.694a2.233,2.233,0,0,0,0,2.68s0-.187,0,5.4Z" transform="translate(0 -63.314)" fill="none" stroke="#8c8a8a" stroke-linecap="round" stroke-linejoin="round" stroke-miterlimit="10" stroke-width="1"/>
    <path id="Path_140687" data-name="Path 140687" d="M306.776,266.091h-5.359L300.747,256h6.7Z" transform="translate(-241.765 -234.909)" fill="none" stroke="#8c8a8a" stroke-linecap="round" stroke-linejoin="round" stroke-miterlimit="10" stroke-width="1"/>
  </g>
</svg>
