<svg xmlns="http://www.w3.org/2000/svg" width="22" height="22" viewBox="0 0 22 22">
  <g id="lounge" transform="translate(-0.003)">
    <g id="Group_43" data-name="Group 43" transform="translate(0.003)">
      <path id="Path_75" data-name="Path 75" d="M19.425,9.066a2.573,2.573,0,0,0-.647.082l.449-4.987V4.155A3.444,3.444,0,0,0,16.3.473,40.211,40.211,0,0,0,10.96,0,39.049,39.049,0,0,0,5.7.468,3.445,3.445,0,0,0,2.778,4.15v.007l.449,4.992A2.578,2.578,0,0,0,0,11.644a9.189,9.189,0,0,0,3.311,6.847l-.7,2.41a.859.859,0,1,0,1.651.479l.68-2.345H17.06l.68,2.345a.859.859,0,0,0,1.651-.478l-.859-2.965a.859.859,0,0,0-.847-.619H4.59A8.423,8.423,0,0,1,3.227,15.9a6.918,6.918,0,0,1-1.505-4.259.859.859,0,0,1,1.719,0,.863.863,0,0,0,.006.1l.059.494a1.891,1.891,0,0,0,2.244,1.8A28.976,28.976,0,0,1,11,13.449a28.975,28.975,0,0,1,5.253.59,1.891,1.891,0,0,0,2.244-1.8l.059-.494a.863.863,0,0,0,.006-.1.859.859,0,1,1,1.719,0,6.681,6.681,0,0,1-.742,3.048.859.859,0,0,0,1.533.778A8.384,8.384,0,0,0,22,11.644,2.581,2.581,0,0,0,19.425,9.066Zm-1.91-5.055L16.786,12.1s0,.005,0,.008c0,.023,0,.046,0,.069a.172.172,0,0,1-.2.169A30.653,30.653,0,0,0,11,11.73a30.65,30.65,0,0,0-5.575.62.169.169,0,0,1-.143-.037.167.167,0,0,1-.062-.132c0-.023,0-.046,0-.069,0,0,0-.005,0-.008l-.729-8.1A1.722,1.722,0,0,1,5.952,2.168a37.391,37.391,0,0,1,5.008-.449,38.546,38.546,0,0,1,5.089.455A1.722,1.722,0,0,1,17.515,4.012Z" transform="translate(-0.003)" fill="#8c8a8a"/>
    </g>
  </g>
</svg>
