<svg xmlns="http://www.w3.org/2000/svg" width="16.016" height="22.3" viewBox="0 0 16.016 22.3">
  <g id="Fire_Extinguishers" data-name="Fire Extinguishers" transform="translate(-5.848 -1.85)">
    <path id="Path_65" data-name="Path 65" d="M11.143,22.643H8.786A.785.785,0,0,1,8,21.857V14.786A.785.785,0,0,1,8.786,14h2.357A2.36,2.36,0,0,1,13.5,16.357v3.929A2.36,2.36,0,0,1,11.143,22.643ZM9.571,21.071h1.571a.787.787,0,0,0,.786-.786V16.357a.787.787,0,0,0-.786-.786H9.571Z" transform="translate(-0.429 -2.571)" fill="#8b8a8a" stroke="#fff" stroke-width="0.3"/>
    <path id="Path_66" data-name="Path 66" d="M14.643,2H6.786a.786.786,0,0,0,0,1.571H8.9L6.35,5.275a.786.786,0,0,0,.872,1.307l3.493-2.329v2.54a3.935,3.935,0,0,0-3.143,3.849v11A2.36,2.36,0,0,0,9.928,24h6.286a2.36,2.36,0,0,0,2.357-2.357v-11a3.936,3.936,0,0,0-3.143-3.849V3.634a5.5,5.5,0,0,1,4.714,5.437V21.643a.786.786,0,1,0,1.571,0V9.071A7.08,7.08,0,0,0,14.643,2Zm-.786,1.571V6.714H12.286V3.571ZM17,10.643v11a.787.787,0,0,1-.786.786H9.928a.787.787,0,0,1-.786-.786v-11A2.36,2.36,0,0,1,11.5,8.286h3.143A2.36,2.36,0,0,1,17,10.643Z" transform="translate(0)" fill="#8b8a8a" stroke="#fff" stroke-width="0.3"/>
  </g>
</svg>
