<svg xmlns="http://www.w3.org/2000/svg" width="22" height="17.773" viewBox="0 0 22 17.773">
  <g id="Free_Wifi" data-name="Free Wifi" transform="translate(-0.345)">
    <g id="Group_27" data-name="Group 27" transform="translate(8.851 12.786)">
      <path id="Path_30" data-name="Path 30" d="M211.806,245.987a2.494,2.494,0,1,1,2.494-2.494A2.5,2.5,0,0,1,211.806,245.987Zm0-3.4a.9.9,0,1,0,.9.9A.9.9,0,0,0,211.806,242.592Z" transform="translate(-209.312 -241)" fill="#8c8a8a"/>
    </g>
    <g id="Group_28" data-name="Group 28" transform="translate(6.227 8.428)">
      <path id="Path_31" data-name="Path 31" d="M169.293,162.239a.793.793,0,0,1-.563-.233,5.322,5.322,0,0,0-7.518,0,.8.8,0,0,1-1.125-1.125,6.916,6.916,0,0,1,9.769,0,.8.8,0,0,1-.563,1.359Z" transform="translate(-159.854 -158.86)" fill="#8c8a8a"/>
    </g>
    <g id="Group_29" data-name="Group 29" transform="translate(3.346 4.35)">
      <path id="Path_32" data-name="Path 32" d="M106.343,86.575a.8.8,0,0,1-.563-1.359,10.982,10.982,0,0,1,15.531,0,.8.8,0,0,1-1.125,1.125,9.391,9.391,0,0,0-13.28,0A.793.793,0,0,1,106.343,86.575Z" transform="translate(-105.547 -82)" fill="#8c8a8a"/>
    </g>
    <g id="Group_39" data-name="Group 39" transform="translate(0.345 0)">
      <path id="Path_42" data-name="Path 42" d="M70.183,5.871a.793.793,0,0,1-.563-.233,13.509,13.509,0,0,0-19.283,0,.8.8,0,0,1-1.125-1.125,15.1,15.1,0,0,1,21.534,0,.8.8,0,0,1-.563,1.359Z" transform="translate(-48.979 0)" fill="#8c8a8a"/>
    </g>
  </g>
</svg>
