<svg xmlns="http://www.w3.org/2000/svg" width="21.456" height="22" viewBox="0 0 21.456 22">
  <path id="Front_Desk" data-name="Front Desk" d="M5.073,24.987H24.384V14.795h1.073V13.722H10.437a4.291,4.291,0,0,1,8.357-1.373l1.019-.343a5.364,5.364,0,0,0-3.1-3.267,3.218,3.218,0,1,0-3.969,0,5.364,5.364,0,0,0-3.379,4.983H4v1.073H5.073Zm7.51-18.774a2.146,2.146,0,1,1,2.146,2.146A2.146,2.146,0,0,1,12.583,6.212Zm10.728,8.583v9.119H6.146v-5.9H23.7V16.94H6.146V14.795Z" transform="translate(-4 -2.987)" fill="#8c8a8a"/>
</svg>
