<svg xmlns="http://www.w3.org/2000/svg" width="22.207" height="22.194" viewBox="0 0 22.207 22.194">
  <g id="fitness_center" data-name="fitness center" transform="translate(0.15 0.135)">
    <path id="Path_140581" data-name="Path 140581" d="M20.956,3.282a.456.456,0,0,1-.323-.779L22,1.134a.456.456,0,0,1,.645.645L21.279,3.149A.455.455,0,0,1,20.956,3.282Z" transform="translate(-1.787 -0.086)" fill="#8c8a8a" stroke="#8c8a8a" stroke-width="0.3"/>
    <path id="Path_140582" data-name="Path 140582" d="M7.206,16.335a.456.456,0,0,1-.323-.779l8.672-8.672a.456.456,0,1,1,.645.645L7.529,16.2a.455.455,0,0,1-.322.133Z" transform="translate(-0.589 -0.587)" fill="#8c8a8a" stroke="#8c8a8a" stroke-width="0.3"/>
    <path id="Path_140583" data-name="Path 140583" d="M1.456,22.782A.456.456,0,0,1,1.133,22L2.5,20.634a.456.456,0,0,1,.645.645L1.779,22.649A.455.455,0,0,1,1.456,22.782Z" transform="translate(-0.087 -1.786)" fill="#8c8a8a" stroke="#8c8a8a" stroke-width="0.3"/>
    <path id="Path_140584" data-name="Path 140584" d="M8.794,22.526a1.361,1.361,0,0,1-.968-.4L.9,15.2a1.37,1.37,0,0,1,0-1.937l.535-.535a1.371,1.371,0,0,1,1.936,0L10.3,19.653a1.372,1.372,0,0,1,0,1.936l-.535.535a1.357,1.357,0,0,1-.968.4ZM2.4,13.242a.458.458,0,0,0-.323.133l-.535.535a.456.456,0,0,0,0,.644l6.925,6.925a.466.466,0,0,0,.645,0l.535-.535a.457.457,0,0,0,0-.645L2.727,13.374a.457.457,0,0,0-.323-.132Z" transform="translate(-0.044 -1.074)" fill="#8c8a8a" stroke="#8c8a8a" stroke-width="0.3"/>
    <path id="Path_140585" data-name="Path 140585" d="M5.555,23.251a1.361,1.361,0,0,1-.968-.4L.4,18.664a1.37,1.37,0,0,1,0-1.937l1.18-1.18a.456.456,0,0,1,.645.645l-1.18,1.18a.457.457,0,0,0-.133.323.452.452,0,0,0,.133.322L5.232,22.2a.467.467,0,0,0,.645,0l1.18-1.18a.456.456,0,1,1,.645.645l-1.18,1.18A1.357,1.357,0,0,1,5.555,23.251Z" transform="translate(0 -1.343)" fill="#8c8a8a" stroke="#8c8a8a" stroke-width="0.3"/>
    <path id="Path_140586" data-name="Path 140586" d="M20.622,10.7a1.368,1.368,0,0,1-.968-.4L12.729,3.374a1.372,1.372,0,0,1,0-1.936L13.264.9A1.4,1.4,0,0,1,15.2.9l6.924,6.925a1.371,1.371,0,0,1,0,1.937l-.535.535a1.365,1.365,0,0,1-.968.4Zm-6.39-9.284a.457.457,0,0,0-.323.133l-.535.535a.457.457,0,0,0,0,.645L20.3,9.652a.458.458,0,0,0,.645,0l.535-.535a.457.457,0,0,0,0-.645L14.554,1.547a.448.448,0,0,0-.321-.133Z" transform="translate(-1.075 -0.044)" fill="#8c8a8a" stroke="#8c8a8a" stroke-width="0.3"/>
    <path id="Path_140587" data-name="Path 140587" d="M21.347,7.839a.456.456,0,0,1-.323-.779L22.2,5.88a.456.456,0,0,0,0-.645L18.019,1.048a.469.469,0,0,0-.645,0l-1.18,1.18a.456.456,0,1,1-.645-.645L16.729.4a1.4,1.4,0,0,1,1.937,0l4.185,4.186a1.37,1.37,0,0,1,0,1.936l-1.18,1.18a.458.458,0,0,1-.323.133Z" transform="translate(-1.344)" fill="#8c8a8a" stroke="#8c8a8a" stroke-width="0.3"/>
  </g>
</svg>
