<svg xmlns="http://www.w3.org/2000/svg" width="20.167" height="22" viewBox="0 0 20.167 22">
  <g id="Heater-On-request" transform="translate(-1)">
    <path id="Path_140568" data-name="Path 140568" d="M7.973,6.416A.458.458,0,0,1,7.592,5.7a1.867,1.867,0,0,0-.04-2.239A2.839,2.839,0,0,1,7.592.2a.458.458,0,0,1,.763.508,1.963,1.963,0,0,0,.018,2.347,2.757,2.757,0,0,1-.019,3.153.455.455,0,0,1-.38.2Z" transform="translate(-0.504 0)" fill="#8c8a8a"/>
    <path id="Path_140569" data-name="Path 140569" d="M11.956,6.416a.453.453,0,0,1-.254-.077.459.459,0,0,1-.127-.635,1.865,1.865,0,0,0-.04-2.239A2.844,2.844,0,0,1,11.575.2a.458.458,0,0,1,.763.508,1.961,1.961,0,0,0,.019,2.347,2.757,2.757,0,0,1-.019,3.153.458.458,0,0,1-.381.2Z" transform="translate(-0.836 0)" fill="#8c8a8a"/>
    <path id="Path_140570" data-name="Path 140570" d="M15.939,6.416a.453.453,0,0,1-.254-.077.459.459,0,0,1-.127-.635,1.865,1.865,0,0,0-.04-2.239A2.844,2.844,0,0,1,15.558.2a.458.458,0,1,1,.763.508,1.961,1.961,0,0,0,.019,2.347,2.757,2.757,0,0,1-.019,3.153A.455.455,0,0,1,15.939,6.416Z" transform="translate(-1.168 0)" fill="#8c8a8a"/>
    <path id="Path_140571" data-name="Path 140571" d="M18.875,20.833H3.292A2.294,2.294,0,0,1,1,18.541v-8.25A2.294,2.294,0,0,1,3.292,8H18.875a2.294,2.294,0,0,1,2.292,2.292v8.25A2.294,2.294,0,0,1,18.875,20.833ZM3.292,8.916a1.377,1.377,0,0,0-1.375,1.375v8.25a1.377,1.377,0,0,0,1.375,1.375H18.875a1.377,1.377,0,0,0,1.375-1.375v-8.25a1.377,1.377,0,0,0-1.375-1.375Z" transform="translate(0 -0.666)" fill="#8c8a8a"/>
    <path id="Path_140572" data-name="Path 140572" d="M4.458,19.166A.459.459,0,0,1,4,18.708v-8.25a.458.458,0,1,1,.917,0v8.25A.459.459,0,0,1,4.458,19.166Z" transform="translate(-0.25 -0.833)" fill="#8c8a8a"/>
    <path id="Path_140573" data-name="Path 140573" d="M7.458,19.166A.459.459,0,0,1,7,18.708v-8.25a.458.458,0,1,1,.917,0v8.25A.459.459,0,0,1,7.458,19.166Z" transform="translate(-0.5 -0.833)" fill="#8c8a8a"/>
    <path id="Path_140574" data-name="Path 140574" d="M10.458,19.166A.459.459,0,0,1,10,18.708v-8.25a.458.458,0,1,1,.917,0v8.25A.459.459,0,0,1,10.458,19.166Z" transform="translate(-0.75 -0.833)" fill="#8c8a8a"/>
    <path id="Path_140575" data-name="Path 140575" d="M13.458,19.166A.459.459,0,0,1,13,18.708v-8.25a.458.458,0,1,1,.917,0v8.25A.459.459,0,0,1,13.458,19.166Z" transform="translate(-1 -0.833)" fill="#8c8a8a"/>
    <path id="Path_140576" data-name="Path 140576" d="M16.458,19.166A.459.459,0,0,1,16,18.708v-8.25a.458.458,0,1,1,.917,0v8.25A.459.459,0,0,1,16.458,19.166Z" transform="translate(-1.25 -0.833)" fill="#8c8a8a"/>
    <path id="Path_140577" data-name="Path 140577" d="M19.458,19.166A.459.459,0,0,1,19,18.708v-8.25a.458.458,0,1,1,.917,0v8.25A.459.459,0,0,1,19.458,19.166Z" transform="translate(-1.5 -0.833)" fill="#8c8a8a"/>
    <path id="Path_140578" data-name="Path 140578" d="M5.458,23.75A.459.459,0,0,1,5,23.291V21.458a.458.458,0,1,1,.917,0v1.833A.459.459,0,0,1,5.458,23.75Z" transform="translate(-0.333 -1.75)" fill="#8c8a8a"/>
    <path id="Path_140579" data-name="Path 140579" d="M18.458,23.75A.459.459,0,0,1,18,23.291V21.458a.458.458,0,1,1,.917,0v1.833A.459.459,0,0,1,18.458,23.75Z" transform="translate(-1.416 -1.75)" fill="#8c8a8a"/>
  </g>
</svg>
