<svg xmlns="http://www.w3.org/2000/svg" width="17.372" height="20.423" viewBox="0 0 17.372 20.423">
  <g id="housekeeping" transform="translate(-37.784 0)">
    <g id="Group_52831" data-name="Group 52831" transform="translate(37.784 0)">
      <path id="Path_140842" data-name="Path 140842" d="M86.567,407.988a.3.3,0,0,0-.281.321l.073,1.087a.3.3,0,0,0,.3.281h.021a.3.3,0,0,0,.281-.321l-.073-1.086a.3.3,0,0,0-.321-.282Z" transform="translate(-84.328 -391.517)" fill="#8c8a8a"/>
      <path id="Path_140843" data-name="Path 140843" d="M55.148,20.059l-1.062-5.107a2.6,2.6,0,0,0-2.6-2.561h-.052v-.805a.3.3,0,0,0-.258-.3V.819a.819.819,0,1,0-1.638,0V11.289a.3.3,0,0,0-.258.3v.805h-.053a2.587,2.587,0,0,0-1.6.552l.1-1.439a.816.816,0,0,0-.251-1.594H38.6a.816.816,0,0,0-.249,1.594l.517,7.672A1.338,1.338,0,0,0,40.2,20.422H54.854a.3.3,0,0,0,.3-.363h0ZM50.357.6a.217.217,0,0,1,.152.063.214.214,0,0,1,.063.152V11.285h-.431V.819A.216.216,0,0,1,50.357.6Zm-.474,11.285h.948v.5h-.948Zm-.657,1.107h2.26a2,2,0,0,1,1.976,1.7H47.25a2,2,0,0,1,1.976-1.7Zm.086,2.3-.2,4.524H48l.564-4.524Zm.6,0h.879l.2,4.524H49.717Zm1.482,0h.744l.564,4.524H51.6ZM38.6,10.513h8.876a.215.215,0,1,1,0,.431H38.6a.215.215,0,0,1,0-.431Zm8.445,1.034a3.417,3.417,0,0,1-3.3,2.583H42.305A3.4,3.4,0,0,1,39,11.547Zm-7.576,7.588-.408-6.055a4.056,4.056,0,0,0,.41.481A3.986,3.986,0,0,0,42.3,14.733h1.437a4.02,4.02,0,0,0,3.277-1.71l-.046.674a2.583,2.583,0,0,0-.347,1.254l-1.013,4.869H40.2A.734.734,0,0,1,39.469,19.135Zm7.7-3.84h.79L47.4,19.819H46.23Zm6.144,4.524L52.751,15.3h.79l.941,4.524Z" transform="translate(-37.784 0)" fill="#8c8a8a"/>
    </g>
  </g>
</svg>
