<svg id="premium_tv_channel" data-name="premium tv channel" xmlns="http://www.w3.org/2000/svg" width="21.213" height="21.213" viewBox="0 0 21.213 21.213">
  <g id="Group_52791" data-name="Group 52791" transform="translate(1.823 5.469)">
    <g id="Group_52785" data-name="Group 52785">
      <g id="Group_52784" data-name="Group 52784">
        <g id="Group_52783" data-name="Group 52783">
          <g id="Group_52782" data-name="Group 52782">
            <path id="Path_140737" data-name="Path 140737" d="M57.465,144.1H44.456a.456.456,0,0,1-.456-.456V132.456a.456.456,0,0,1,.456-.456H57.465a.456.456,0,0,1,.456.456v11.186A.456.456,0,0,1,57.465,144.1Zm-12.554-.911h12.1V132.911h-12.1Z" transform="translate(-44 -132)" fill="#8c8a8a"/>
          </g>
        </g>
      </g>
    </g>
    <g id="Group_52790" data-name="Group 52790" transform="translate(14.832 0.779)">
      <g id="Group_52787" data-name="Group 52787">
        <g id="Group_52786" data-name="Group 52786">
          <path id="Path_140738" data-name="Path 140738" d="M403.367,153.535a1.367,1.367,0,1,1,1.367-1.367A1.369,1.369,0,0,1,403.367,153.535Zm0-1.823a.456.456,0,1,0,.456.456A.456.456,0,0,0,403.367,151.712Z" transform="translate(-402 -150.801)" fill="#8c8a8a"/>
        </g>
      </g>
      <g id="Group_52789" data-name="Group 52789" transform="translate(0 3.646)">
        <g id="Group_52788" data-name="Group 52788">
          <path id="Path_140739" data-name="Path 140739" d="M403.367,241.535a1.367,1.367,0,1,1,1.367-1.367A1.369,1.369,0,0,1,403.367,241.535Zm0-1.823a.456.456,0,1,0,.456.456A.456.456,0,0,0,403.367,239.712Z" transform="translate(-402 -238.801)" fill="#8c8a8a"/>
        </g>
      </g>
    </g>
  </g>
  <g id="Group_52794" data-name="Group 52794" transform="translate(0 0)">
    <g id="Group_52792" data-name="Group 52792" transform="translate(3.646)">
      <path id="Path_140740" data-name="Path 140740" d="M196.136.133a.456.456,0,0,0-.645,0l-3.324,3.324-1.981-1.981a.456.456,0,0,0-.645.645l2.3,2.3h.645L196.136.778A.456.456,0,0,0,196.136.133Z" transform="translate(-185.207 0)" fill="#8c8a8a"/>
      <path id="Path_140741" data-name="Path 140741" d="M98.146,180.526a3.318,3.318,0,0,0-1.564-.1c.005-.054.009-.109.009-.164a1.709,1.709,0,0,0-2.562-1.48,1.72,1.72,0,0,1,.24-.333,1.466,1.466,0,0,0,.385-1.1,1.414,1.414,0,0,0-.53-1.006,1.466,1.466,0,0,0-1.993.148,4.606,4.606,0,0,0-1.138,2.273,1.486,1.486,0,0,1-.644.969l-1.8,1.173h0c-.057.037-.113.075-.168.116a.456.456,0,0,0,.542.732,2.39,2.39,0,0,1,2.861,0,3.315,3.315,0,0,0,3.946,0,2.412,2.412,0,0,1,2.143-.364.456.456,0,1,0,.27-.871Zm-3.828-.824h0a.8.8,0,1,1-.233.564A.792.792,0,0,1,94.318,179.7Zm-1.988,1.325a3.291,3.291,0,0,0-1.38-.6,2.4,2.4,0,0,0,.938-1.494,3.7,3.7,0,0,1,.914-1.824.552.552,0,0,1,.751-.054.511.511,0,0,1,.192.364.544.544,0,0,1-.146.413A2.624,2.624,0,0,0,93.7,181.5,2.4,2.4,0,0,1,92.33,181.027Z" transform="translate(-88.192 -168.732)" fill="#8c8a8a"/>
      <path id="Path_140742" data-name="Path 140742" d="M97.931,335.038a3.841,3.841,0,0,0-2.908.407,2.914,2.914,0,0,1-2.928,0,3.806,3.806,0,0,0-3.878,0,.456.456,0,1,0,.475.778,2.914,2.914,0,0,1,2.928,0,3.807,3.807,0,0,0,3.878,0,2.913,2.913,0,0,1,2.206-.3.456.456,0,0,0,.228-.883Z" transform="translate(-87.998 -321.038)" fill="#8c8a8a"/>
    </g>
    <g id="Group_52793" data-name="Group 52793" transform="translate(0 3.646)">
      <path id="Path_140743" data-name="Path 140743" d="M20.757,88H.456A.456.456,0,0,0,0,88.456v14.832a.456.456,0,0,0,.456.456h.765L2.4,105.378a.456.456,0,0,0,.369.189H18.442a.456.456,0,0,0,.369-.189l1.181-1.634h.765a.456.456,0,0,0,.456-.456V88.456A.456.456,0,0,0,20.757,88Zm-2.548,16.655H3l-.659-.911H18.868Zm2.092-1.823H.911V88.911H20.3Z" transform="translate(0 -88)" fill="#8c8a8a"/>
      <path id="Path_140744" data-name="Path 140744" d="M402.456,384.112h1.823a.456.456,0,0,0,0-.911h-1.823a.456.456,0,0,0,0,.911Z" transform="translate(-385.345 -370.97)" fill="#8c8a8a"/>
      <path id="Path_140745" data-name="Path 140745" d="M402.456,333.845h1.823a.456.456,0,1,0,0-.911h-1.823a.456.456,0,0,0,0,.911Z" transform="translate(-385.345 -322.786)" fill="#8c8a8a"/>
    </g>
  </g>
</svg>
