<svg xmlns="http://www.w3.org/2000/svg" width="13.966" height="22.3" viewBox="0 0 13.966 22.3">
  <g id="Public-Restroom" transform="translate(-96.83 0.15)">
    <g id="Group_52746" data-name="Group 52746" transform="translate(96.98 0)">
      <path id="Path_140566" data-name="Path 140566" d="M109.976,9.549h-1.5V8.785a.931.931,0,0,0,.738-.91V4.916a.322.322,0,0,0-.645,0V7.875a.286.286,0,0,1-.285.285H99.342a.286.286,0,0,1-.285-.285V2.033h9.512V5.412a.322.322,0,0,0,.645,0V2.024a.67.67,0,0,0,.564-.66V.67a.67.67,0,0,0-.669-.67H98.517a.67.67,0,0,0-.67.67v.695a.67.67,0,0,0,.564.66v5.85a.931.931,0,0,0,.738.91v.765h-1.5a.67.67,0,0,0-.669.669v.694a.67.67,0,0,0,.564.66v1.249a3.538,3.538,0,0,0,3.534,3.534h.6l-.737,3.609h-.692a.67.67,0,0,0-.669.67v.694a.67.67,0,0,0,.669.669h7.118a.67.67,0,0,0,.669-.669v-.694a.67.67,0,0,0-.669-.67h-.692l-.737-3.609h.6a3.538,3.538,0,0,0,3.534-3.534V11.574a.67.67,0,0,0,.564-.66v-.694a.67.67,0,0,0-.669-.669ZM98.492.67a.025.025,0,0,1,.025-.025h10.591a.025.025,0,0,1,.025.025v.695a.025.025,0,0,1-.025.025H98.517a.025.025,0,0,1-.025-.025V.67Zm1.3,8.135h8.037v.745H99.795Zm6.228,11.162h-3.458a.322.322,0,0,0,0,.645h4.807a.025.025,0,0,1,.025.025v.694a.025.025,0,0,1-.025.025h-7.118a.025.025,0,0,1-.025-.025v-.694a.025.025,0,0,1,.025-.025h2.807a.322.322,0,0,0,0-.645H101.6l.737-3.609h2.946Zm.525-4.254h-5.469a2.893,2.893,0,0,1-2.89-2.89v-1.24h1.1a.322.322,0,0,0,0-.645H97.649a.025.025,0,0,1-.025-.025v-.694a.025.025,0,0,1,.025-.025h12.327a.025.025,0,0,1,.025.025v.694a.025.025,0,0,1-.025.025H98.789a.322.322,0,0,0,0,.645h10.648v1.24A2.893,2.893,0,0,1,106.547,15.713Z" transform="translate(-96.98 0)" fill="#8c8a8a" stroke="#8c8a8a" stroke-width="0.3"/>
      <path id="Path_140567" data-name="Path 140567" d="M162.508,63.281a.973.973,0,1,0,0,.645h.427a.322.322,0,0,0,0-.645Zm-.918.651a.329.329,0,1,1,.329-.329A.329.329,0,0,1,161.589,63.932Z" transform="translate(-157.882 -59.939)" fill="#8c8a8a" stroke="#8c8a8a" stroke-width="0.3"/>
    </g>
  </g>
</svg>
