<svg xmlns="http://www.w3.org/2000/svg" width="16.029" height="21.336" viewBox="0 0 16.029 21.336">
  <g id="reading_lamps" data-name="reading lamps" transform="translate(-72.693 -10.5)">
    <path id="Path_140746" data-name="Path 140746" d="M318.723,127.312l.57.57a1.661,1.661,0,0,0,2.351,0h0a1.661,1.661,0,0,0,0-2.351l-.57-.573" transform="translate(-235.269 -109.229)" fill="none" stroke="#8c8a8a" stroke-linecap="round" stroke-linejoin="round" stroke-miterlimit="10" stroke-width="1"/>
    <line id="Line_143" data-name="Line 143" x2="2.734" y2="8.19" transform="translate(75.476 18.931)" fill="none" stroke="#8c8a8a" stroke-linecap="round" stroke-linejoin="round" stroke-miterlimit="10" stroke-width="1"/>
    <line id="Line_144" data-name="Line 144" x1="3.062" y2="3.062" transform="translate(76.059 13.161)" fill="none" stroke="#8c8a8a" stroke-linecap="round" stroke-linejoin="round" stroke-miterlimit="10" stroke-width="1"/>
    <path id="Path_140747" data-name="Path 140747" d="M208.859,12.543,207.316,11l-2.557,2.556L206.3,15.1l-.774,3.857,1.542,1.543,7.184-7.184-1.54-1.543Z" transform="translate(-126.035)" fill="none" stroke="#8c8a8a" stroke-linecap="round" stroke-linejoin="round" stroke-miterlimit="10" stroke-width="1"/>
    <circle id="Ellipse_9606" data-name="Ellipse 9606" cx="1.464" cy="1.464" r="1.464" transform="matrix(0.158, -0.987, 0.987, 0.158, 73.266, 18.561)" fill="none" stroke="#8c8a8a" stroke-linecap="round" stroke-linejoin="round" stroke-miterlimit="10" stroke-width="1"/>
    <path id="Path_140748" data-name="Path 140748" d="M113.375,406.931v-1.384h-3.7v1.384h-1.648V409.5h7v-2.574Z" transform="translate(-33.314 -378.169)" fill="none" stroke="#8c8a8a" stroke-linecap="round" stroke-linejoin="round" stroke-miterlimit="10" stroke-width="1"/>
  </g>
</svg>
