<svg xmlns="http://www.w3.org/2000/svg" width="20.195" height="21.026" viewBox="0 0 20.195 21.026">
  <g id="slippers" transform="translate(-44.775 -12.792)">
    <g id="Group_52800" data-name="Group 52800" transform="translate(45.683 17.776)">
      <g id="Group_52799" data-name="Group 52799" transform="translate(0 0)">
        <g id="Group_52797" data-name="Group 52797">
          <line id="Line_158" data-name="Line 158" x1="7.679" transform="translate(0 2.684)" fill="none" stroke="#8c8a8a" stroke-linecap="round" stroke-linejoin="round" stroke-miterlimit="10" stroke-width="1"/>
          <line id="Line_159" data-name="Line 159" x2="7.679" transform="translate(0.045)" fill="none" stroke="#8c8a8a" stroke-linecap="round" stroke-linejoin="round" stroke-miterlimit="10" stroke-width="1"/>
        </g>
        <g id="Group_52798" data-name="Group 52798" transform="translate(10.764 4.188)">
          <line id="Line_160" data-name="Line 160" x1="7.57" transform="translate(0 2.684)" fill="none" stroke="#8c8a8a" stroke-linecap="round" stroke-linejoin="round" stroke-miterlimit="10" stroke-width="1"/>
          <line id="Line_161" data-name="Line 161" x2="7.57" transform="translate(0)" fill="none" stroke="#8c8a8a" stroke-linecap="round" stroke-linejoin="round" stroke-miterlimit="10" stroke-width="1"/>
        </g>
      </g>
    </g>
    <g id="Group_52811" data-name="Group 52811" transform="translate(45.275 11)">
      <path id="Path_140760" data-name="Path 140760" d="M53.752,71.03H45.275V65.566a4.239,4.239,0,0,1,4.239-4.239h0a4.239,4.239,0,0,1,4.239,4.239Z" transform="translate(-45.275 -59.035)" fill="none" stroke="#8c8a8a" stroke-linecap="round" stroke-linejoin="round" stroke-miterlimit="10" stroke-width="1"/>
      <path id="Path_140761" data-name="Path 140761" d="M70.807,281.342v2.432a3.384,3.384,0,0,1-3.384,3.385h0a3.384,3.384,0,0,1-3.384-3.385v-2.432" transform="translate(-63.184 -269.029)" fill="none" stroke="#8c8a8a" stroke-linecap="round" stroke-linejoin="round" stroke-miterlimit="10" stroke-width="1"/>
      <path id="Path_140762" data-name="Path 140762" d="M289.078,162.974H280.6V157.51a4.239,4.239,0,0,1,4.239-4.239h0a4.239,4.239,0,0,1,4.239,4.239Z" transform="translate(-269.883 -146.791)" fill="none" stroke="#8c8a8a" stroke-linecap="round" stroke-linejoin="round" stroke-miterlimit="10" stroke-width="1"/>
      <path id="Path_140763" data-name="Path 140763" d="M306.134,373.286v2.432a3.385,3.385,0,0,1-3.384,3.385h0a3.385,3.385,0,0,1-3.384-3.385v-2.432" transform="translate(-287.793 -356.785)" fill="none" stroke="#8c8a8a" stroke-linecap="round" stroke-linejoin="round" stroke-miterlimit="10" stroke-width="1"/>
    </g>
  </g>
</svg>
