<svg xmlns="http://www.w3.org/2000/svg" xmlns:xlink="http://www.w3.org/1999/xlink" width="21.333" height="21.333" viewBox="0 0 21.333 21.333">
  <defs>
    <clipPath id="clip-path">
      <path id="path21" d="M0-682.665H21.333v21.333H0Z" transform="translate(0 682.665)"/>
    </clipPath>
  </defs>
  <g id="spa_services" data-name="spa services" transform="translate(0 682.665)">
    <g id="g17" transform="translate(0 -682.665)">
      <g id="g19" clip-path="url(#clip-path)">
        <g id="g25" transform="translate(2.414 14.018)">
          <path id="path27" d="M-449.641-107.376a3.112,3.112,0,0,1,2,2.837v.3a.406.406,0,0,1-.405.405H-463.74a.406.406,0,0,1-.405-.405v-.3c0-2.75,3.277-3.342,5.279-3.949a.513.513,0,0,0,.365-.492v-1.86" transform="translate(464.146 110.84)" fill="none" stroke="#8c8a8a" stroke-linecap="round" stroke-linejoin="round" stroke-miterlimit="10" stroke-width="0.8"/>
        </g>
        <g id="g29" transform="translate(13.275 14.018)">
          <path id="path31" d="M0,0V1.86a.513.513,0,0,0,.365.492c.569.172,1.241.344,1.911.563" fill="none" stroke="#8c8a8a" stroke-linecap="round" stroke-linejoin="round" stroke-miterlimit="10" stroke-width="0.8"/>
        </g>
        <g id="g33" transform="translate(10.666 0.312)">
          <path id="path35" d="M0,0A6.314,6.314,0,0,1,6.17,4.974" fill="none" stroke="#8c8a8a" stroke-linecap="round" stroke-linejoin="round" stroke-miterlimit="10" stroke-width="0.8"/>
        </g>
        <g id="g37" transform="translate(5.745 6.418)">
          <path id="path39" d="M-4.663,0a4.083,4.083,0,0,0-.15.593" transform="translate(4.813)" fill="none" stroke="#8c8a8a" stroke-linecap="round" stroke-linejoin="round" stroke-miterlimit="10" stroke-width="0.8"/>
        </g>
        <g id="g41" transform="translate(8.181 13.466)">
          <path id="path43" d="M0,0A5.448,5.448,0,0,0,2.485.817,5.45,5.45,0,0,0,4.97,0" fill="none" stroke="#8c8a8a" stroke-linecap="round" stroke-linejoin="round" stroke-miterlimit="10" stroke-width="0.8"/>
        </g>
        <g id="g45" transform="translate(9.274 3.565)">
          <path id="path47" d="M0-1.266a4.154,4.154,0,0,1,.584-.041H2.2A4.177,4.177,0,0,1,6.314,2.14" transform="translate(0 1.307)" fill="none" stroke="#8c8a8a" stroke-linecap="round" stroke-linejoin="round" stroke-miterlimit="10" stroke-width="0.8"/>
        </g>
        <g id="g49" transform="translate(5.894 0.312)">
          <path id="path51" d="M0-189.368c.753-1.807,5.622-4.117,8.351-5a6.283,6.283,0,0,0-3.579-1.112,6.285,6.285,0,0,0-2.94.725" transform="translate(0 195.477)" fill="none" stroke="#8c8a8a" stroke-linecap="round" stroke-linejoin="round" stroke-miterlimit="10" stroke-width="0.8"/>
        </g>
        <g id="g53" transform="translate(0.478 1.093)">
          <path id="path55" d="M-173.834-290.625a.741.741,0,0,0,.421-.8l-.381-2.126-2-2.764-.629-3.508a.208.208,0,0,0-.242-.168l-2.6.467a.209.209,0,0,0-.167.251l1.711,7.6a3.583,3.583,0,0,0,1.375,2.1l3.809,2.8a.4.4,0,0,0,.545-.073,1.227,1.227,0,0,0-.092-1.612l-1.65-1.685-.1-.471a.736.736,0,0,1-.178.056.742.742,0,0,1-.861-.6l-.381-2.126" transform="translate(179.441 299.999)" fill="none" stroke="#8c8a8a" stroke-linecap="round" stroke-linejoin="round" stroke-miterlimit="10" stroke-width="0.8"/>
        </g>
        <g id="g57" transform="translate(13.151 1.093)">
          <path id="path59" d="M-109-207.869l-.381,2.126a.741.741,0,0,1-.861.6.741.741,0,0,1-.6-.861l.381-2.126,2-2.764.629-3.508a.208.208,0,0,1,.242-.168l2.6.467a.209.209,0,0,1,.167.251l-1.711,7.6a3.583,3.583,0,0,1-1.375,2.1l-3.809,2.8a.4.4,0,0,1-.545-.073,1.227,1.227,0,0,1,.092-1.612l1.65-1.685.1-.471" transform="translate(112.518 214.574)" fill="none" stroke="#8c8a8a" stroke-linecap="round" stroke-linejoin="round" stroke-miterlimit="10" stroke-width="0.8"/>
        </g>
        <g id="g61" transform="translate(7.703 7.976)">
          <path id="path63" d="M0-5.761a1.08,1.08,0,0,1,1.212,0" transform="translate(0 5.947)" fill="none" stroke="#8c8a8a" stroke-linecap="round" stroke-linejoin="round" stroke-miterlimit="10" stroke-width="0.8"/>
        </g>
        <g id="g65" transform="translate(12.418 7.976)">
          <path id="path67" d="M0-5.761a1.08,1.08,0,0,1,1.212,0" transform="translate(0 5.947)" fill="none" stroke="#8c8a8a" stroke-linecap="round" stroke-linejoin="round" stroke-miterlimit="10" stroke-width="0.8"/>
        </g>
        <g id="g69" transform="translate(9.548 11.38)">
          <path id="path71" d="M0,0A2.817,2.817,0,0,0,2.237,0" fill="none" stroke="#8c8a8a" stroke-linecap="round" stroke-linejoin="round" stroke-miterlimit="10" stroke-width="0.8"/>
        </g>
        <g id="g73" transform="translate(4.496 1.872)">
          <path id="path75" d="M0-105.852a6.306,6.306,0,0,1,2.016-3.414" transform="translate(0 109.266)" fill="none" stroke="#8c8a8a" stroke-linecap="round" stroke-linejoin="round" stroke-miterlimit="10" stroke-width="0.8"/>
        </g>
      </g>
    </g>
  </g>
</svg>
