<svg xmlns="http://www.w3.org/2000/svg" width="21.542" height="20.178" viewBox="0 0 21.542 20.178">
  <g id="suitable_for_children" data-name="suitable for children" transform="translate(-10.5 -26.766)">
    <path id="Path_140764" data-name="Path 140764" d="M432.989,256h.933a1.918,1.918,0,0,1,0,3.836h-.933" transform="translate(-404.298 -219.145)" fill="none" stroke="#8c8a8a" stroke-linecap="round" stroke-linejoin="round" stroke-miterlimit="10" stroke-width="1"/>
    <path id="Path_140765" data-name="Path 140765" d="M13.851,256h-.933a1.918,1.918,0,0,0,0,3.836h.933" transform="translate(0 -219.145)" fill="none" stroke="#8c8a8a" stroke-linecap="round" stroke-linejoin="round" stroke-miterlimit="10" stroke-width="1"/>
    <path id="Path_140766" data-name="Path 140766" d="M218.745,383.075a1.7,1.7,0,0,1-3.409,0" transform="translate(-195.77 -340.893)" fill="none" stroke="#8c8a8a" stroke-linecap="round" stroke-linejoin="round" stroke-miterlimit="10" stroke-width="1"/>
    <path id="Path_140767" data-name="Path 140767" d="M299.221,272.528a1.279,1.279,0,1,0-2.557,0" transform="translate(-273.688 -233.755)" fill="none" stroke="#8c8a8a" stroke-linecap="round" stroke-linejoin="round" stroke-miterlimit="10" stroke-width="1"/>
    <path id="Path_140768" data-name="Path 140768" d="M154.34,272.528a1.279,1.279,0,1,1,2.557,0" transform="translate(-137.331 -233.755)" fill="none" stroke="#8c8a8a" stroke-linecap="round" stroke-linejoin="round" stroke-miterlimit="10" stroke-width="1"/>
    <path id="Path_140769" data-name="Path 140769" d="M78.329,126.795a7.66,7.66,0,1,0,4.6-.042" transform="translate(-59.412 -95.316)" fill="none" stroke="#8c8a8a" stroke-linecap="round" stroke-linejoin="round" stroke-miterlimit="10" stroke-width="1"/>
    <path id="Path_140770" data-name="Path 140770" d="M200.529,27.266a3.315,3.315,0,0,1,3.315,3.315,2.652,2.652,0,0,1-2.652,2.652,2.121,2.121,0,0,1-2.121-2.121,1.7,1.7,0,0,1,1.7-1.7Z" transform="translate(-180.187 0)" fill="none" stroke="#8c8a8a" stroke-linecap="round" stroke-linejoin="round" stroke-miterlimit="10" stroke-width="1"/>
  </g>
</svg>
