<svg xmlns="http://www.w3.org/2000/svg" width="24.287" height="18.624" viewBox="0 0 24.287 18.624">
  <g id="swimming-pool" transform="translate(0 -59.7)">
    <path id="Path_78" data-name="Path 78" d="M.908,74.222c9.23-2.624,12.6,2.678,22.849,0a.712.712,0,0,0-.359-1.377,20.966,20.966,0,0,1-5.334.722L16,70.246a3.185,3.185,0,1,0-.408-.658L12.77,65.038l4.189-1.209a2.105,2.105,0,0,0-1.167-4.046L9.45,61.614a2.58,2.58,0,0,0-1.478,3.841l1.917,3.089c-1.382.858-5.764,3.575-5.811,3.607a21.062,21.062,0,0,0-3.56.7.712.712,0,0,0,.389,1.369ZM17.2,67.04a1.767,1.767,0,1,1,.077,2.5A1.767,1.767,0,0,1,17.2,67.04ZM11.473,68.4,9.181,64.7a1.158,1.158,0,0,1,.663-1.723l6.341-1.83a.682.682,0,1,1,.378,1.311l-5.091,1.469a.712.712,0,0,0-.407,1.059L16.344,73.5c-3.32-.279-6.018-1.28-9.433-1.432l4.333-2.688a.711.711,0,0,0,.229-.98Z" transform="translate(-0.002 0)" fill="#8c8a8a"/>
    <path id="Path_79" data-name="Path 79" d="M23.4,390.692c-9.8,2.559-13.242-2.736-22.879,0a.712.712,0,0,0,.389,1.369c9.23-2.624,12.6,2.678,22.849,0a.712.712,0,0,0-.359-1.377Z" transform="translate(0 -314.522)" fill="#8c8a8a"/>
  </g>
</svg>
