<svg xmlns="http://www.w3.org/2000/svg" width="19.722" height="22.447" viewBox="0 0 19.722 22.447">
  <g id="Wheelchair_Accessible" data-name="Wheelchair Accessible" transform="translate(0.288 0.25)">
    <path id="Path_140487" data-name="Path 140487" d="M21.164,61.529a.342.342,0,0,0-.481.062,6.487,6.487,0,1,1-8.929-9.221.342.342,0,0,0-.4-.554,7.17,7.17,0,1,0,9.871,10.193A.342.342,0,0,0,21.164,61.529Z" transform="translate(-8.378 -42.9)" fill="#8c8a8a" stroke="#8c8a8a" stroke-width="0.5"/>
    <path id="Path_140488" data-name="Path 140488" d="M29.091,4.976A2.493,2.493,0,1,0,26.6,2.484a2.493,2.493,0,0,0,2.491,2.492Zm0-4.3a1.809,1.809,0,1,1-1.807,1.809A1.809,1.809,0,0,1,29.091.676Z" transform="translate(-23.482 0.01)" fill="#8c8a8a" stroke="#8c8a8a" stroke-width="0.5"/>
    <path id="Path_140489" data-name="Path 140489" d="M46.3,46.188a1.461,1.461,0,0,0-1.448-1.343H43.6L42.7,40.353a1.882,1.882,0,0,0-1.838-1.5h-5.89c-.046-.267-.121-.7-.207-1.2H38.18a1.369,1.369,0,1,0,0-2.738H34.308c-.022-.142-.044-.277-.062-.394a1.691,1.691,0,0,0-1.882-1.468,1.646,1.646,0,0,0-1.347,1.973c.279,1.72,1.174,6.576,1.174,6.624a.342.342,0,0,0,.342.281h7.25l1.134,5.544a.342.342,0,0,0,.342.274h3.593A1.456,1.456,0,0,0,46.3,46.188ZM38.18,35.605a.685.685,0,1,1,0,1.369H34.652c-.079-.459-.159-.933-.231-1.369ZM44.854,47.07H41.539L40.4,41.526a.342.342,0,0,0-.342-.274H32.819c-.2-1.063-.888-4.858-1.131-6.331a.966.966,0,0,1,.753-1.182,1.008,1.008,0,0,1,1.128.893c.21,1.35.775,4.593.782,4.62a.342.342,0,0,0,.342.284H40.87a1.2,1.2,0,0,1,1.167.948l.934,4.771a.342.342,0,0,0,.342.275h1.54a.77.77,0,1,1,0,1.54Z" transform="translate(-27.122 -27.39)" fill="#8c8a8a" stroke="#8c8a8a" stroke-width="0.5"/>
  </g>
</svg>
