<svg xmlns="http://www.w3.org/2000/svg" width="100%" height="100%" viewBox="0 0 379.986 350">
  <g id="Group_88" data-name="Group 88" transform="translate(-4476.014 4191)">
    <rect id="Rectangle_130" data-name="Rectangle 130" width="122.5" height="14.5" transform="translate(4506.614 -4023.2)" fill="#f44336"/>
    <rect id="Rectangle_131" data-name="Rectangle 131" width="33.4" height="16.3" transform="translate(4476.014 -4024.1)" fill="#ea3632"/>
    <rect id="Rectangle_132" data-name="Rectangle 132" width="12.5" height="38.6" transform="translate(4502.514 -4035.3)" fill="#f44336"/>
    <rect id="Rectangle_133" data-name="Rectangle 133" width="14.5" height="122.5" transform="translate(4682.137 -3958.279) rotate(-72.524)" fill="#f44336"/>
    <rect id="Rectangle_134" data-name="Rectangle 134" width="16.2" height="33.4" transform="translate(4796.045 -3921.447) rotate(-72.524)" fill="#ea3632"/>
    <rect id="Rectangle_135" data-name="Rectangle 135" width="38.6" height="12.5" transform="translate(4787.301 -3912.483) rotate(-72.524)" fill="#f44336"/>
    <rect id="Rectangle_136" data-name="Rectangle 136" width="14.5" height="122.5" transform="translate(4702.613 -4059.524) rotate(-88.705)" fill="#f44336"/>
    <rect id="Rectangle_137" data-name="Rectangle 137" width="16.2" height="33.4" transform="translate(4822.244 -4055.959) rotate(-88.705)" fill="#ea3632"/>
    <rect id="Rectangle_138" data-name="Rectangle 138" width="38.6" height="12.5" transform="translate(4816.385 -4044.836) rotate(-88.705)" fill="#f44336"/>
    <rect id="Rectangle_139" data-name="Rectangle 139" width="14.5" height="122.5" transform="translate(4527.918 -4115.582) rotate(-64.932)" fill="#f44336"/>
    <rect id="Rectangle_140" data-name="Rectangle 140" width="16.2" height="33.4" transform="translate(4499.793 -4127.755) rotate(-64.932)" fill="#ea3632"/>
    <rect id="Rectangle_141" data-name="Rectangle 141" width="38.6" height="12.5" transform="translate(4518.987 -4106.355) rotate(-64.932)" fill="#f44336"/>
    <path id="Path_611" data-name="Path 611" d="M312.5,81h-113l-30,106,30,244h113l30-244Z" transform="translate(4410.114 -4272)" fill="#8ec8e8"/>
    <path id="Path_612" data-name="Path 612" d="M342.5,187l-30-106H255.6V431h56.9Z" transform="translate(4410.114 -4272)" fill="#45a7e8"/>
    <path id="Path_613" data-name="Path 613" d="M288.3,158.7H267.7V138.3H244.3v20.4H223.7V182h20.6v49.7h23.4V182h20.6Z" transform="translate(4410.114 -4272)" fill="#45a7e8"/>
    <path id="Path_614" data-name="Path 614" d="M255,231.7h12.2V182h20.7V158.7H267.2V138.3H255" transform="translate(4410.114 -4272)" fill="#8ec8e8"/>
  </g>
</svg>
