<svg xmlns="http://www.w3.org/2000/svg" viewBox="0 0 512 476.8" xmlns:v="https://vecta.io/nano"><path d="M104.4 256.8l-76.2-33.5V297H104l8.5-19.1a16.02 16.02 0 0 0-8.1-21.1z" fill="#7bb9e2"/><path d="M222.5 263.2a6.03 6.03 0 0 1-4.6-2.1l-28.4-33.5a114.06 114.06 0 0 1-27.1-73.8v-35.9a6.1 6.1 0 0 1 12.2 0v35.9a102.29 102.29 0 0 0 24.2 66l28.4 33.5c1.06 1.228 1.582 2.83 1.45 4.447s-.906 3.113-2.15 4.153a7.32 7.32 0 0 1-4 1.3z" fill="#f44336"/><g fill="#8ec8e8"><path d="M209.1 335.5c-5.018-.018-9.082-4.082-9.1-9.1V9.1a9.1 9.1 0 0 1 9.1-9.1 9.1 9.1 0 0 1 9.1 9.1v317.3a9.07 9.07 0 0 1-9.1 9.1zM20.2 406C9.046 405.996.004 396.954 0 385.8V117.9c0-11.156 9.044-20.2 20.2-20.2s20.2 9.044 20.2 20.2v267.9A20.08 20.08 0 0 1 20.2 406zm471.6 0c-11.154-.004-20.196-9.046-20.2-20.2V117.9c0-11.156 9.044-20.2 20.2-20.2s20.2 9.044 20.2 20.2v267.9c-.004 11.154-9.046 20.196-20.2 20.2z"/><path d="M20.2 284.5h471.5v64.7H20.2z"/></g><g fill="#45a7e8"><path d="M40.5 277.4v27.4c-.004 5.014 1.986 9.823 5.531 13.369s8.355 5.535 13.369 5.531h393.2c5.014.004 9.823-1.986 13.369-5.531s5.535-8.355 5.531-13.369v-27.4z"/><circle cx="38.4" cy="38.4" r="38.4" transform="matrix(.099007 -.995087 .995087 .099007 47.998 243.73)"/><path d="M445 208.2H177.5a26.8 26.8 0 0 0-26.8 26.8v44.9c.007 14.357 11.643 25.993 26 26h269c14.357-.007 25.993-11.643 26-26V235c.039-7.102-2.758-13.927-7.771-18.958S452.103 208.187 445 208.2z"/></g><g fill="#8ec8e8"><path d="M293.05 271.5h-149.7c-10.493 0-19-8.507-19-19s8.507-19 19-19h149.7c10.493 0 19 8.507 19 19s-8.507 19-19 19zM168.5 78a6.06 6.06 0 0 1-6.1-6.1V52c.006-8.006 6.494-14.494 14.5-14.5h28.4a6.1 6.1 0 0 1 0 12.2h-28.4c-1.318.018-2.382 1.082-2.4 2.4V72a6.02 6.02 0 0 1-6 6z"/><path d="M184.6 61.2h-31.8a6.06 6.06 0 0 0-6.1 6.1v18l22 12.3 22-12.3v-18c-.013-3.363-2.737-6.087-6.1-6.1z"/></g><path d="M146.6 85.3V116a6.06 6.06 0 0 0 6.1 6.1h31.8a6.06 6.06 0 0 0 6.1-6.1V85.3zm203.7-66c-36.451 0-66 29.549-66 66s29.549 66 66 66c0-2.9 8.3-66 8.3-66l-8.3-66z" fill="#f44336"/><path d="M350.3 19.3v132c36.451 0 66-29.549 66-66s-29.549-66-66-66z" fill="#ea3632"/><g fill="#fff"><path d="M341.3 77.1l-16.4 1.3 1.3 16.4 16.4-1.3L344 110l8.2-.7 6.3-25.3-10.2-24-8.2.7z"/><path d="M358.5 110.1V93.6H375V77.1h-16.5V60.6h-8.3v49.5z"/></g></svg>