<svg xmlns="http://www.w3.org/2000/svg" width="100%" height="100%" viewBox="0 0 480 432">
  <g id="Group_90" data-name="Group 90" transform="translate(-4340 3401)">
    <g id="Group_66" data-name="Group 66" transform="translate(4340 -3425)">
      <path id="Path_602" data-name="Path 602" d="M472,456H8a8,8,0,0,1,0-16H472a8,8,0,0,1,0,16Z" fill="#45a7e8"/>
      <path id="Path_603" data-name="Path 603" d="M288,424H208a8,8,0,0,1,0-16h80a8,8,0,0,1,0,16Z" fill="#45a7e8"/>
      <path id="Path_604" data-name="Path 604" d="M176,424H160a8,8,0,0,1,0-16h16a8,8,0,0,1,0,16Z" fill="#45a7e8"/>
      <path id="Path_605" data-name="Path 605" d="M264,312H168a8,8,0,0,1,0-16h96a8,8,0,0,1,0,16Z" fill="#45a7e8"/>
      <path id="Path_606" data-name="Path 606" d="M136,312H120a8,8,0,0,1,0-16h16a8,8,0,0,1,0,16Z" fill="#45a7e8"/>
    </g>
    <path id="Path_607" data-name="Path 607" d="M94.9,334.1l12,24.3,26.9,3.9-19.4,18.9L119,408,95,395.4,71,408l4.6-26.8L56,362.3l26.9-3.9Z" transform="translate(4340 -3425)" fill="#f44336"/>
    <g id="Group_67" data-name="Group 67" transform="translate(4340 -3425)">
      <path id="Path_608" data-name="Path 608" d="M96,148.8a79.247,79.247,0,0,0,0,112l3,3a16.971,16.971,0,1,0,24-24l-3-3a45.206,45.206,0,0,1,0-64l144,144V392a24.106,24.106,0,0,0,10.7,20,23.863,23.863,0,0,0,26.6,0A24.106,24.106,0,0,0,312,392V292.8l-40-40,40-40,49.4,49.4a22.627,22.627,0,0,0,32-32L312,148.8l-64,64-64-64v-8a64.059,64.059,0,0,0,64-64V75.4a16,16,0,0,0-32,0,33.4,33.4,0,0,1-33.4,33.4,112.55,112.55,0,0,0-79.6,33Z" fill="#8ec8e8"/>
      <circle id="Ellipse_36" data-name="Ellipse 36" cx="40" cy="40" r="40" transform="translate(56 52.8)" fill="#8ec8e8"/>
    </g>
    <path id="Path_609" data-name="Path 609" d="M419.6,26.1,416,24l-3.6,2.1a78.016,78.016,0,0,1-54.3,9.1v80.6a53.59,53.59,0,0,0,8,28.1A55.72,55.72,0,0,0,392.2,166L416,176l23.8-9.9A56.291,56.291,0,0,0,465.9,144a53.852,53.852,0,0,0,8-28.1V35.3A78.6,78.6,0,0,1,419.6,26.1Z" transform="translate(4340 -3425)" fill="#f44336"/>
    <path id="Path_610" data-name="Path 610" d="M419.6,26.1,416,24V176l23.8-9.9A56.291,56.291,0,0,0,465.9,144a53.852,53.852,0,0,0,8-28.1V35.3a78.6,78.6,0,0,1-54.3-9.2Z" transform="translate(4340 -3425)" fill="#ea3632"/>
  </g>
</svg>
