<svg xmlns="http://www.w3.org/2000/svg" width="100%" height="100%" viewBox="0 0 512.057 511.967">
  <g id="Group_93" data-name="Group 93" transform="translate(-5956 3748)">
    <path id="Path_633" data-name="Path 633" d="M163.5,511.9c-7.2-.9-3-1.3-63.5-99.9C2.7,352.3,1,355.8.1,348.5a7.772,7.772,0,0,1,2.3-6.6c31.9-30.2,32.5-36.5,40.1-34.7l80.2,18.5,127.9-140C89,61.6,91.8,68.1,91.3,61.2c-.4-6.4,2.7-5.3,41.4-45.3a7.989,7.989,0,0,1,8.8-1.7L338.7,96.9l81-81C453.5-18,512,6,512,54.1a54.36,54.36,0,0,1-15.8,38.3l-81,81,82.7,197.2a7.989,7.989,0,0,1-1.7,8.8c-40.1,38.8-39,41.9-45.3,41.4-6.9-.5-.4,2.3-124.4-159.2l-140,127.9c17.4,81.4,22,82,16.4,87.7-32.8,31-32.6,35.6-39.4,34.7Z" transform="translate(5956.057 -3748.034)" fill="#8ec8e8"/>
    <path id="Path_634" data-name="Path 634" d="M466.8,70.1a8.1,8.1,0,0,1-5.7-2.3l-17-17a7.99,7.99,0,1,1,11.3-11.3h0l17,17a8.028,8.028,0,0,1,0,11.3,7.537,7.537,0,0,1-5.6,2.3Z" transform="translate(5956.057 -3748.034)" fill="#fdfdff"/>
    <path id="Path_635" data-name="Path 635" d="M415.5,174a681.3,681.3,0,0,1-228.4,81.1l-64.5,70.6L42.4,307.2c-7.6-1.7-8.1,4.5-40.1,34.7A8.082,8.082,0,0,0,0,348.5c.9,7.3,2.6,3.9,99.9,63.5,60.5,98.6,56.4,99,63.5,99.9,6.8.8,6.6-3.7,39.2-34.9,5.6-5.6,1-6.2-16.4-87.7l140-127.9c124,161.5,117.5,158.7,124.4,159.2,6.4.4,5.2-2.6,45.3-41.4a7.989,7.989,0,0,0,1.7-8.8Z" transform="translate(5956.057 -3748.034)" fill="#45a7e8"/>
    <circle id="Ellipse_38" data-name="Ellipse 38" cx="28" cy="28" r="28" transform="translate(6244.057 -3636.034)" fill="#fdfdff"/>
    <circle id="Ellipse_39" data-name="Ellipse 39" cx="20" cy="20" r="20" transform="translate(6324.057 -3636.034)" fill="#fdfdff"/>
    <path id="Path_636" data-name="Path 636" d="M128,392a8.061,8.061,0,0,1-5.7-13.7l40-40a7.99,7.99,0,1,1,11.3,11.3l-40,40A7.412,7.412,0,0,1,128,392Z" transform="translate(5956.057 -3748.034)" fill="#fdfdff"/>
    <circle id="Ellipse_40" data-name="Ellipse 40" cx="88.9" cy="88.9" r="88.9" transform="translate(6211.157 -3509.434)" fill="#f44336"/>
    <circle id="Ellipse_41" data-name="Ellipse 41" cx="69.2" cy="69.2" r="69.2" transform="translate(6230.857 -3489.734)" fill="#ea3632"/>
    <circle id="Ellipse_42" data-name="Ellipse 42" cx="49.4" cy="49.4" r="49.4" transform="translate(6250.657 -3469.934)" fill="#fff"/>
    <path id="Path_637" data-name="Path 637" d="M332.5,329a9.578,9.578,0,0,1-2.3-5.8l-2.4-49.3,19.7-.9,2,41.7L404,326l-4,19.4-62-12.8a11.293,11.293,0,0,1-5.5-3.6Z" transform="translate(5956.057 -3748.034)" fill="#45a7e8"/>
  </g>
</svg>
