<svg xmlns="http://www.w3.org/2000/svg" viewBox="0 0 412.739 476.676" xmlns:v="https://vecta.io/nano"><path d="M128.757 221.6l-32.1-75.7c-3.949-9.306.394-20.051 9.7-24s20.051.394 24 9.7l26.1 61.6 52.2-11.8c9.858-2.237 19.663 3.942 21.9 13.8s-3.942 19.663-13.8 21.9l-67.2 15.2c-8.606 1.911-17.35-2.588-20.8-10.7zm-116.1 253A21.78 21.78 0 0 1 1.33 462.303a21.78 21.78 0 0 1 .727-16.703l42.6-91.9-3.9-77.3a21.88 21.88 0 0 1 20.8-22.9 21.88 21.88 0 0 1 22.9 20.8l4.1 82.7c.191 3.546-.496 7.083-2 10.3l-44.9 96.8a21.85 21.85 0 0 1-29 10.5zm115.3-18l-9.2-105.2-28-83.3c-3.821-11.455 2.358-23.84 13.808-27.675s23.843 2.33 27.692 13.775l28.8 85.8a21.02 21.02 0 0 1 1.1 5.1l9.4 107.8c1.022 12.04-7.91 22.628-19.95 23.65s-22.628-7.91-23.65-19.95z" fill="#45a7e8"/><g fill="#8ec8e8"><path d="M126.457 115.8l-48-3.2c-14.854-.987-27.7 10.247-28.7 25.1l-9.2 138.1 101.8 6.8 9.2-138.1c.992-14.856-10.245-27.704-25.1-28.7z"/><circle cx="40" cy="40" r="40" transform="matrix(.369 -.929 .929 .369 59.559 82.815)"/></g><g fill="#f44336"><path d="M96.657 334.6h-45c-1.751.002-3.431-.693-4.669-1.931s-1.933-2.918-1.931-4.669v-45c-.002-1.751.693-3.431 1.931-4.669s2.918-1.933 4.669-1.931h45c1.751-.002 3.431.693 4.669 1.931s1.933 2.918 1.931 4.669v45a6.53 6.53 0 0 1-6.6 6.6zm-38.3-13.2h31.7v-31.7h-31.7v31.7z"/><path d="M123.857 301.6h-99.3a10.07 10.07 0 0 0-10.1 10.1v68.9a10.07 10.07 0 0 0 10.1 10.1h99.3a10.07 10.07 0 0 0 10.1-10.1v-68.9a10.14 10.14 0 0 0-10.1-10.1z"/></g><path d="M105.157 318.3h-62c-1.673-.007-3.279.655-4.462 1.838s-1.845 2.789-1.838 4.462v43c-.007 1.673.655 3.279 1.838 4.462s2.789 1.845 4.462 1.838h62c1.673.007 3.279-.655 4.462-1.838s1.845-2.789 1.838-4.462v-43a6.21 6.21 0 0 0-6.3-6.3z" fill="#ea3632"/><g fill="#45a7e8"><path d="M62.457 294.2c-2.558-2.17-4.463-5.009-5.5-8.2l-23-70.4c-1.303-3.981-1.197-8.288.3-12.2l9.7-25.2 22.7-5.5 11.7 17.6-7.8 20.2 21 64.3c1.502 4.601 1.113 9.611-1.081 13.926s-6.015 7.579-10.619 9.074a18.5 18.5 0 0 1-17.4-3.6z"/><path d="M78.457 190.2l17.2-44.5c2.358-6.074 1.297-12.944-2.784-18.022s-10.561-7.595-17-6.6-11.858 5.349-14.216 11.422l-17.6 45.5z"/></g><path d="M308.157 209.1c-52.992.028-95.972-42.908-96-95.9s42.908-95.972 95.9-96 95.972 42.908 96 95.9c.01 52.984-42.916 95.955-95.9 96zm0-175.7c-44.072 0-79.8 35.728-79.8 79.8s35.728 79.8 79.8 79.8 79.8-35.728 79.8-79.8c-.051-44.051-35.749-79.749-79.8-79.8z" fill="#f44336"/><path d="M357.457 186l-12.6-65.1h-48.1l36.3 70.5c1.417 2.779 4.281 4.52 7.4 4.5h8.8c2.5.041 4.883-1.055 6.478-2.981s2.228-4.471 1.722-6.919z" fill="#a5c8cd"/><path d="M400.457 97.8c-1.8-1.6-1.5-4.2-3.5-5.5-9.015-5.737-19.644-8.403-30.3-7.6l-106.8 8.7-2.4-6.6a15.87 15.87 0 0 0-14.8-10.4h-28a8.76 8.76 0 0 0-8.1 12.1l8.6 21a29.83 29.83 0 0 0 25.1 18.4l126.3 10.3c13.119 1.092 26.117-3.204 36-11.9l5.6-4.9c2.707-2.348 4.351-5.69 4.558-9.268s-1.04-7.087-3.458-9.732c-.3-.2-8.8-4.6-8.8-4.6z" fill="#b4d7dc"/><path d="M345.457 99.8l-39.4-76.5c-1.695-3.242-5.042-5.281-8.7-5.3h-11.8a9.82 9.82 0 0 0-9.6 11.6l14.5 74.8a7.19 7.19 0 0 0 7.1 5.8h41.4a7.1 7.1 0 0 0 6.5-10.4z" fill="#c8e6eb"/><path d="M408.257 101.5l-5.6-4.9a47.28 47.28 0 0 0-5.7-4.3h-12.2a5.1 5.1 0 1 0 0 10.2h24.6a9.96 9.96 0 0 1-1.1-1z" fill="#fff"/><path d="M238.057 171.3l128.8-128.8 11.4 11.4-128.8 128.8z" fill="#f44336"/><path d="M205.857 337.6h123.8m-104.5 26.1h123.8m-102.3 28.7h123.7" fill="#ea3632" stroke="#45a7e8" stroke-linecap="round" stroke-miterlimit="10" stroke-width="13"/><path d="M141.057 0h-37.9c-17.452 0-31.6 14.148-31.6 31.6v31.6l25.3-31.6h44.2c8.726 0 15.8-7.074 15.8-15.8S149.783 0 141.057 0z" fill="#45a7e8"/></svg>